<svg xmlns="http://www.w3.org/2000/svg" xmlns:xlink="http://www.w3.org/1999/xlink" width="500" zoomAndPan="magnify" viewBox="0 0 375 135.000003" height="180" preserveAspectRatio="xMidYMid meet" version="1.0"><defs><clipPath id="0b765dd4aa"><path d="M 12.835938 10.980469 L 40.199219 10.980469 L 40.199219 38.347656 L 12.835938 38.347656 Z M 12.835938 10.980469 " clip-rule="nonzero"/></clipPath><clipPath id="8509f3646b"><path d="M 26.515625 10.980469 C 18.960938 10.980469 12.835938 17.109375 12.835938 24.660156 C 12.835938 32.21875 18.960938 38.347656 26.515625 38.347656 C 34.074219 38.347656 40.199219 32.21875 40.199219 24.660156 C 40.199219 17.109375 34.074219 10.980469 26.515625 10.980469 Z M 26.515625 10.980469 " clip-rule="nonzero"/></clipPath><clipPath id="d337284cc4"><path d="M 88.132812 10.980469 L 115.496094 10.980469 L 115.496094 38.347656 L 88.132812 38.347656 Z M 88.132812 10.980469 " clip-rule="nonzero"/></clipPath><clipPath id="dbff74370f"><path d="M 101.816406 10.980469 C 94.257812 10.980469 88.132812 17.109375 88.132812 24.660156 C 88.132812 32.21875 94.257812 38.347656 101.816406 38.347656 C 109.371094 38.347656 115.496094 32.21875 115.496094 24.660156 C 115.496094 17.109375 109.371094 10.980469 101.816406 10.980469 Z M 101.816406 10.980469 " clip-rule="nonzero"/></clipPath><clipPath id="1816b8d3f8"><path d="M 12.835938 48.410156 L 40.199219 48.410156 L 40.199219 75.769531 L 12.835938 75.769531 Z M 12.835938 48.410156 " clip-rule="nonzero"/></clipPath><clipPath id="e26fd688cb"><path d="M 26.515625 48.410156 C 18.960938 48.410156 12.835938 54.53125 12.835938 62.089844 C 12.835938 69.644531 18.960938 75.769531 26.515625 75.769531 C 34.074219 75.769531 40.199219 69.644531 40.199219 62.089844 C 40.199219 54.53125 34.074219 48.410156 26.515625 48.410156 Z M 26.515625 48.410156 " clip-rule="nonzero"/></clipPath><clipPath id="cd9e847578"><path d="M 50.511719 48.5 L 77.875 48.5 L 77.875 75.867188 L 50.511719 75.867188 Z M 50.511719 48.5 " clip-rule="nonzero"/></clipPath><clipPath id="36dc571b94"><path d="M 64.195312 48.5 C 56.636719 48.5 50.511719 54.628906 50.511719 62.183594 C 50.511719 69.742188 56.636719 75.867188 64.195312 75.867188 C 71.746094 75.867188 77.875 69.742188 77.875 62.183594 C 77.875 54.628906 71.746094 48.5 64.195312 48.5 Z M 64.195312 48.5 " clip-rule="nonzero"/></clipPath><clipPath id="e8b348aa52"><path d="M 50.457031 86.179688 L 77.816406 86.179688 L 77.816406 113.542969 L 50.457031 113.542969 Z M 50.457031 86.179688 " clip-rule="nonzero"/></clipPath><clipPath id="c8ffe85d5c"><path d="M 64.136719 86.179688 C 56.582031 86.179688 50.457031 92.304688 50.457031 99.863281 C 50.457031 107.414062 56.582031 113.542969 64.136719 113.542969 C 71.695312 113.542969 77.816406 107.414062 77.816406 99.863281 C 77.816406 92.304688 71.695312 86.179688 64.136719 86.179688 Z M 64.136719 86.179688 " clip-rule="nonzero"/></clipPath><clipPath id="aa2165d291"><path d="M 88.078125 86.085938 L 115.441406 86.085938 L 115.441406 113.449219 L 88.078125 113.449219 Z M 88.078125 86.085938 " clip-rule="nonzero"/></clipPath><clipPath id="25cfef3dbb"><path d="M 101.761719 86.085938 C 94.203125 86.085938 88.078125 92.210938 88.078125 99.769531 C 88.078125 107.324219 94.203125 113.449219 101.761719 113.449219 C 109.316406 113.449219 115.441406 107.324219 115.441406 99.769531 C 115.441406 92.210938 109.316406 86.085938 101.761719 86.085938 Z M 101.761719 86.085938 " clip-rule="nonzero"/></clipPath><clipPath id="6ed23d7393"><path d="M 1.378906 37 L 90 37 L 90 125 L 1.378906 125 Z M 1.378906 37 " clip-rule="nonzero"/></clipPath><clipPath id="e513cf23e7"><path d="M 43 65 L 123 65 L 123 134.007812 L 43 134.007812 Z M 43 65 " clip-rule="nonzero"/></clipPath><clipPath id="01ba736eb7"><path d="M 12.777344 10.980469 L 40.144531 10.980469 L 40.144531 38.347656 L 12.777344 38.347656 Z M 12.777344 10.980469 " clip-rule="nonzero"/></clipPath><clipPath id="52a7425762"><path d="M 26.457031 10.980469 C 18.90625 10.980469 12.777344 17.109375 12.777344 24.660156 C 12.777344 32.21875 18.90625 38.347656 26.457031 38.347656 C 34.015625 38.347656 40.144531 32.21875 40.144531 24.660156 C 40.144531 17.109375 34.015625 10.980469 26.457031 10.980469 Z M 26.457031 10.980469 " clip-rule="nonzero"/></clipPath><clipPath id="6201a9c24e"><path d="M 88.078125 10.980469 L 115.441406 10.980469 L 115.441406 38.347656 L 88.078125 38.347656 Z M 88.078125 10.980469 " clip-rule="nonzero"/></clipPath><clipPath id="00d4ece52f"><path d="M 101.761719 10.980469 C 94.203125 10.980469 88.078125 17.109375 88.078125 24.660156 C 88.078125 32.21875 94.203125 38.347656 101.761719 38.347656 C 109.316406 38.347656 115.441406 32.21875 115.441406 24.660156 C 115.441406 17.109375 109.316406 10.980469 101.761719 10.980469 Z M 101.761719 10.980469 " clip-rule="nonzero"/></clipPath><clipPath id="e4c590e3ac"><path d="M 12.777344 48.410156 L 40.144531 48.410156 L 40.144531 75.769531 L 12.777344 75.769531 Z M 12.777344 48.410156 " clip-rule="nonzero"/></clipPath><clipPath id="576520f4cd"><path d="M 26.457031 48.410156 C 18.90625 48.410156 12.777344 54.53125 12.777344 62.089844 C 12.777344 69.644531 18.90625 75.769531 26.457031 75.769531 C 34.015625 75.769531 40.144531 69.644531 40.144531 62.089844 C 40.144531 54.53125 34.015625 48.410156 26.457031 48.410156 Z M 26.457031 48.410156 " clip-rule="nonzero"/></clipPath><clipPath id="7551bea1c5"><path d="M 50.457031 48.5 L 77.816406 48.5 L 77.816406 75.867188 L 50.457031 75.867188 Z M 50.457031 48.5 " clip-rule="nonzero"/></clipPath><clipPath id="a1da298766"><path d="M 64.136719 48.5 C 56.582031 48.5 50.457031 54.628906 50.457031 62.183594 C 50.457031 69.742188 56.582031 75.867188 64.136719 75.867188 C 71.695312 75.867188 77.816406 69.742188 77.816406 62.183594 C 77.816406 54.628906 71.695312 48.5 64.136719 48.5 Z M 64.136719 48.5 " clip-rule="nonzero"/></clipPath><clipPath id="c1f30444aa"><path d="M 50.402344 86.179688 L 77.761719 86.179688 L 77.761719 113.542969 L 50.402344 113.542969 Z M 50.402344 86.179688 " clip-rule="nonzero"/></clipPath><clipPath id="b9bff8be1e"><path d="M 64.082031 86.179688 C 56.527344 86.179688 50.402344 92.304688 50.402344 99.863281 C 50.402344 107.414062 56.527344 113.542969 64.082031 113.542969 C 71.640625 113.542969 77.761719 107.414062 77.761719 99.863281 C 77.761719 92.304688 71.640625 86.179688 64.082031 86.179688 Z M 64.082031 86.179688 " clip-rule="nonzero"/></clipPath><clipPath id="aeddfd5966"><path d="M 88.023438 86.085938 L 115.386719 86.085938 L 115.386719 113.449219 L 88.023438 113.449219 Z M 88.023438 86.085938 " clip-rule="nonzero"/></clipPath><clipPath id="f385788dcf"><path d="M 101.707031 86.085938 C 94.148438 86.085938 88.023438 92.210938 88.023438 99.769531 C 88.023438 107.324219 94.148438 113.449219 101.707031 113.449219 C 109.261719 113.449219 115.386719 107.324219 115.386719 99.769531 C 115.386719 92.210938 109.261719 86.085938 101.707031 86.085938 Z M 101.707031 86.085938 " clip-rule="nonzero"/></clipPath><clipPath id="fa58ba9b8c"><path d="M 1.378906 35 L 91 35 L 91 127 L 1.378906 127 Z M 1.378906 35 " clip-rule="nonzero"/></clipPath><clipPath id="58c9074fe2"><path d="M 12.457031 10.574219 L 39.929688 10.574219 L 39.929688 38.046875 L 12.457031 38.046875 Z M 12.457031 10.574219 " clip-rule="nonzero"/></clipPath><clipPath id="68fcae013f"><path d="M 26.195312 10.574219 C 18.609375 10.574219 12.457031 16.722656 12.457031 24.308594 C 12.457031 31.898438 18.609375 38.046875 26.195312 38.046875 C 33.78125 38.046875 39.929688 31.898438 39.929688 24.308594 C 39.929688 16.722656 33.78125 10.574219 26.195312 10.574219 Z M 26.195312 10.574219 " clip-rule="nonzero"/></clipPath><clipPath id="d10ba3ef4f"><path d="M 88.058594 10.574219 L 115.527344 10.574219 L 115.527344 38.046875 L 88.058594 38.046875 Z M 88.058594 10.574219 " clip-rule="nonzero"/></clipPath><clipPath id="fdb4bed61b"><path d="M 101.792969 10.574219 C 94.207031 10.574219 88.058594 16.722656 88.058594 24.308594 C 88.058594 31.898438 94.207031 38.046875 101.792969 38.046875 C 109.378906 38.046875 115.527344 31.898438 115.527344 24.308594 C 115.527344 16.722656 109.378906 10.574219 101.792969 10.574219 Z M 101.792969 10.574219 " clip-rule="nonzero"/></clipPath><clipPath id="b80bb4f1c3"><path d="M 12.457031 48.148438 L 39.929688 48.148438 L 39.929688 75.621094 L 12.457031 75.621094 Z M 12.457031 48.148438 " clip-rule="nonzero"/></clipPath><clipPath id="a159a5addd"><path d="M 26.195312 48.148438 C 18.609375 48.148438 12.457031 54.300781 12.457031 61.886719 C 12.457031 69.472656 18.609375 75.621094 26.195312 75.621094 C 33.78125 75.621094 39.929688 69.472656 39.929688 61.886719 C 39.929688 54.300781 33.78125 48.148438 26.195312 48.148438 Z M 26.195312 48.148438 " clip-rule="nonzero"/></clipPath><clipPath id="d30923e7c0"><path d="M 50.285156 48.242188 L 77.757812 48.242188 L 77.757812 75.714844 L 50.285156 75.714844 Z M 50.285156 48.242188 " clip-rule="nonzero"/></clipPath><clipPath id="b59f1f5440"><path d="M 64.023438 48.242188 C 56.4375 48.242188 50.285156 54.390625 50.285156 61.976562 C 50.285156 69.566406 56.4375 75.714844 64.023438 75.714844 C 71.609375 75.714844 77.757812 69.566406 77.757812 61.976562 C 77.757812 54.390625 71.609375 48.242188 64.023438 48.242188 Z M 64.023438 48.242188 " clip-rule="nonzero"/></clipPath><clipPath id="89d32b64a4"><path d="M 50.230469 86.070312 L 77.703125 86.070312 L 77.703125 113.539062 L 50.230469 113.539062 Z M 50.230469 86.070312 " clip-rule="nonzero"/></clipPath><clipPath id="c5a27b40a0"><path d="M 63.964844 86.070312 C 56.378906 86.070312 50.230469 92.21875 50.230469 99.804688 C 50.230469 107.390625 56.378906 113.539062 63.964844 113.539062 C 71.550781 113.539062 77.703125 107.390625 77.703125 99.804688 C 77.703125 92.21875 71.550781 86.070312 63.964844 86.070312 Z M 63.964844 86.070312 " clip-rule="nonzero"/></clipPath><clipPath id="c1e016bf61"><path d="M 88 85.976562 L 115.472656 85.976562 L 115.472656 113.449219 L 88 113.449219 Z M 88 85.976562 " clip-rule="nonzero"/></clipPath><clipPath id="1356ecef6e"><path d="M 101.738281 85.976562 C 94.152344 85.976562 88 92.125 88 99.710938 C 88 107.296875 94.152344 113.449219 101.738281 113.449219 C 109.324219 113.449219 115.472656 107.296875 115.472656 99.710938 C 115.472656 92.125 109.324219 85.976562 101.738281 85.976562 Z M 101.738281 85.976562 " clip-rule="nonzero"/></clipPath><clipPath id="e4fc20d62c"><path d="M 34 9.464844 L 116.585938 9.464844 L 116.585938 92 L 34 92 Z M 34 9.464844 " clip-rule="nonzero"/></clipPath><clipPath id="2c93fdb3bb"><path d="M 10.867188 33 L 92 33 L 92 115.183594 L 10.867188 115.183594 Z M 10.867188 33 " clip-rule="nonzero"/></clipPath></defs><g clip-path="url(#0b765dd4aa)"><g clip-path="url(#8509f3646b)"><path fill="#ff5722" d="M 12.835938 10.980469 L 40.199219 10.980469 L 40.199219 38.347656 L 12.835938 38.347656 Z M 12.835938 10.980469 " fill-opacity="1" fill-rule="nonzero"/></g></g><g clip-path="url(#d337284cc4)"><g clip-path="url(#dbff74370f)"><path fill="#ff5722" d="M 88.132812 10.980469 L 115.496094 10.980469 L 115.496094 38.347656 L 88.132812 38.347656 Z M 88.132812 10.980469 " fill-opacity="1" fill-rule="nonzero"/></g></g><g clip-path="url(#1816b8d3f8)"><g clip-path="url(#e26fd688cb)"><path fill="#ff5722" d="M 12.835938 48.410156 L 40.199219 48.410156 L 40.199219 75.769531 L 12.835938 75.769531 Z M 12.835938 48.410156 " fill-opacity="1" fill-rule="nonzero"/></g></g><g clip-path="url(#cd9e847578)"><g clip-path="url(#36dc571b94)"><path fill="#ff5722" d="M 50.511719 48.5 L 77.875 48.5 L 77.875 75.867188 L 50.511719 75.867188 Z M 50.511719 48.5 " fill-opacity="1" fill-rule="nonzero"/></g></g><g clip-path="url(#e8b348aa52)"><g clip-path="url(#c8ffe85d5c)"><path fill="#ff5722" d="M 50.457031 86.179688 L 77.816406 86.179688 L 77.816406 113.542969 L 50.457031 113.542969 Z M 50.457031 86.179688 " fill-opacity="1" fill-rule="nonzero"/></g></g><g clip-path="url(#aa2165d291)"><g clip-path="url(#25cfef3dbb)"><path fill="#ff5722" d="M 88.078125 86.085938 L 115.441406 86.085938 L 115.441406 113.449219 L 88.078125 113.449219 Z M 88.078125 86.085938 " fill-opacity="1" fill-rule="nonzero"/></g></g><path stroke-linecap="butt" transform="matrix(0.540802, -0.539334, 0.539334, 0.540802, 71.723211, 50.356963)" fill="none" stroke-linejoin="miter" d="M -0.00093228 3.997891 L 33.740498 4.00268 " stroke="#ff5722" stroke-width="8" stroke-opacity="1" stroke-miterlimit="4"/><path stroke-linecap="butt" transform="matrix(0, -0.763772, 0.763772, 0, 23.458772, 48.40689)" fill="none" stroke-linejoin="miter" d="M 0.000838071 4.002311 L 13.17558 4.002311 " stroke="#ff5722" stroke-width="8" stroke-opacity="1" stroke-miterlimit="4"/><g clip-path="url(#6ed23d7393)"><path stroke-linecap="butt" transform="matrix(0.539004, 0.54113, -0.54113, 0.539004, 38.33518, 69.629083)" fill="none" stroke-linejoin="miter" d="M -0.0024318 4.002547 L 33.974083 3.997142 " stroke="#ff5722" stroke-width="8" stroke-opacity="1" stroke-miterlimit="4"/></g><g clip-path="url(#e513cf23e7)"><path stroke-linecap="butt" transform="matrix(0.76377, -0.00188306, 0.00188306, 0.76377, 77.81222, 96.772449)" fill="none" stroke-linejoin="miter" d="M -0.00436969 3.995655 L 13.431237 3.998094 " stroke="#ff5722" stroke-width="8" stroke-opacity="1" stroke-miterlimit="4"/></g><path fill="#ffffff" d="M 138.753906 108.730469 L 130.652344 108.730469 L 130.652344 61.378906 L 138.753906 61.378906 Z M 130 48.824219 C 130 47.511719 130.398438 46.402344 131.195312 45.5 C 132 44.597656 133.1875 44.144531 134.757812 44.144531 C 136.339844 44.144531 137.535156 44.597656 138.355469 45.5 C 139.171875 46.402344 139.582031 47.511719 139.582031 48.824219 C 139.582031 50.140625 139.171875 51.238281 138.355469 52.117188 C 137.535156 52.988281 136.339844 53.421875 134.757812 53.421875 C 133.1875 53.421875 132 52.988281 131.195312 52.117188 C 130.398438 51.238281 130 50.140625 130 48.824219 Z M 130 48.824219 " fill-opacity="1" fill-rule="nonzero"/><path fill="#ffffff" d="M 154.605469 61.378906 L 154.875 67.328125 C 158.488281 62.777344 163.214844 60.503906 169.050781 60.503906 C 179.050781 60.503906 184.097656 66.152344 184.183594 77.449219 L 184.183594 108.730469 L 176.101562 108.730469 L 176.101562 77.402344 C 176.070312 73.988281 175.28125 71.460938 173.746094 69.828125 C 172.21875 68.195312 169.835938 67.378906 166.601562 67.378906 C 163.96875 67.378906 161.660156 68.078125 159.679688 69.476562 C 157.695312 70.878906 156.152344 72.71875 155.050781 75 L 155.050781 108.730469 L 146.949219 108.730469 L 146.949219 61.378906 Z M 154.605469 61.378906 " fill-opacity="1" fill-rule="nonzero"/><path fill="#ffffff" d="M 202.625 49.921875 L 202.625 61.378906 L 211.46875 61.378906 L 211.46875 67.648438 L 202.625 67.648438 L 202.625 97.003906 C 202.625 98.90625 203.011719 100.328125 203.800781 101.269531 C 204.597656 102.214844 205.941406 102.6875 207.84375 102.6875 C 208.773438 102.6875 210.058594 102.511719 211.691406 102.160156 L 211.691406 108.730469 C 209.5625 109.3125 207.484375 109.605469 205.472656 109.605469 C 201.851562 109.605469 199.125 108.515625 197.292969 106.328125 C 195.453125 104.132812 194.539062 101.027344 194.539062 97.003906 L 194.539062 67.648438 L 185.914062 67.648438 L 185.914062 61.378906 L 194.539062 61.378906 L 194.539062 49.921875 Z M 202.625 49.921875 " fill-opacity="1" fill-rule="nonzero"/><path fill="#ffffff" d="M 235.816406 109.605469 C 229.398438 109.605469 224.175781 107.503906 220.144531 103.289062 C 216.121094 99.070312 214.113281 93.433594 214.113281 86.375 L 214.113281 84.878906 C 214.113281 80.183594 215.007812 75.992188 216.804688 72.308594 C 218.59375 68.617188 221.101562 65.730469 224.328125 63.636719 C 227.550781 61.550781 231.046875 60.503906 234.816406 60.503906 C 240.964844 60.503906 245.746094 62.535156 249.152344 66.597656 C 252.566406 70.652344 254.277344 76.453125 254.277344 84.003906 L 254.277344 87.378906 L 222.214844 87.378906 C 222.328125 92.046875 223.691406 95.820312 226.300781 98.691406 C 228.910156 101.566406 232.226562 103.003906 236.246094 103.003906 C 239.113281 103.003906 241.535156 102.421875 243.519531 101.253906 C 245.5 100.089844 247.234375 98.539062 248.722656 96.605469 L 253.671875 100.457031 C 249.699219 106.558594 243.75 109.605469 235.816406 109.605469 Z M 234.816406 67.15625 C 231.546875 67.15625 228.804688 68.347656 226.589844 70.734375 C 224.367188 73.113281 222.996094 76.441406 222.46875 80.726562 L 246.191406 80.726562 L 246.191406 80.105469 C 245.957031 76 244.847656 72.820312 242.867188 70.558594 C 240.882812 68.292969 238.195312 67.15625 234.816406 67.15625 Z M 234.816406 67.15625 " fill-opacity="1" fill-rule="nonzero"/><path fill="#ffffff" d="M 259.589844 41.519531 L 267.691406 41.519531 L 267.691406 108.730469 L 259.589844 108.730469 Z M 259.589844 41.519531 " fill-opacity="1" fill-rule="nonzero"/><path fill="#ffffff" d="M 284.6875 108.730469 L 276.589844 108.730469 L 276.589844 61.378906 L 284.6875 61.378906 Z M 275.9375 48.824219 C 275.9375 47.511719 276.332031 46.402344 277.128906 45.5 C 277.933594 44.597656 279.121094 44.144531 280.691406 44.144531 C 282.273438 44.144531 283.46875 44.597656 284.289062 45.5 C 285.105469 46.402344 285.515625 47.511719 285.515625 48.824219 C 285.515625 50.140625 285.105469 51.238281 284.289062 52.117188 C 283.46875 52.988281 282.273438 53.421875 280.691406 53.421875 C 279.121094 53.421875 277.933594 52.988281 277.128906 52.117188 C 276.332031 51.238281 275.9375 50.140625 275.9375 48.824219 Z M 275.9375 48.824219 " fill-opacity="1" fill-rule="nonzero"/><path fill="#ffffff" d="M 301.683594 108.730469 L 293.585938 108.730469 L 293.585938 61.378906 L 301.683594 61.378906 Z M 292.933594 48.824219 C 292.933594 47.511719 293.328125 46.402344 294.125 45.5 C 294.929688 44.597656 296.117188 44.144531 297.691406 44.144531 C 299.269531 44.144531 300.464844 44.597656 301.285156 45.5 C 302.101562 46.402344 302.511719 47.511719 302.511719 48.824219 C 302.511719 50.140625 302.101562 51.238281 301.285156 52.117188 C 300.464844 52.988281 299.269531 53.421875 297.691406 53.421875 C 296.117188 53.421875 294.929688 52.988281 294.125 52.117188 C 293.328125 51.238281 292.933594 50.140625 292.933594 48.824219 Z M 292.933594 48.824219 " fill-opacity="1" fill-rule="nonzero"/><path fill="#ffffff" d="M 307.734375 84.625 C 307.734375 79.980469 308.644531 75.804688 310.46875 72.101562 C 312.292969 68.402344 314.828125 65.542969 318.074219 63.527344 C 321.328125 61.511719 325.050781 60.503906 329.230469 60.503906 C 335.667969 60.503906 340.878906 62.738281 344.855469 67.203125 C 348.839844 71.667969 350.839844 77.605469 350.839844 85.007812 L 350.839844 85.582031 C 350.839844 90.195312 349.949219 94.332031 348.179688 97.992188 C 346.417969 101.652344 343.902344 104.507812 340.621094 106.550781 C 337.34375 108.589844 333.574219 109.605469 329.308594 109.605469 C 322.890625 109.605469 317.6875 107.375 313.699219 102.910156 C 309.722656 98.445312 307.734375 92.535156 307.734375 85.183594 Z M 315.878906 85.582031 C 315.878906 90.832031 317.09375 95.046875 319.523438 98.230469 C 321.960938 101.414062 325.222656 103.003906 329.308594 103.003906 C 333.421875 103.003906 336.691406 101.394531 339.109375 98.167969 C 341.53125 94.945312 342.738281 90.429688 342.738281 84.625 C 342.738281 79.429688 341.503906 75.21875 339.046875 71.992188 C 336.585938 68.769531 333.3125 67.15625 329.230469 67.15625 C 325.226562 67.15625 322.003906 68.746094 319.554688 71.929688 C 317.105469 75.109375 315.878906 79.660156 315.878906 85.582031 Z M 315.878906 85.582031 " fill-opacity="1" fill-rule="nonzero"/><g clip-path="url(#01ba736eb7)"><g clip-path="url(#52a7425762)"><path fill="#ff5722" d="M 12.777344 10.980469 L 40.144531 10.980469 L 40.144531 38.347656 L 12.777344 38.347656 Z M 12.777344 10.980469 " fill-opacity="1" fill-rule="nonzero"/></g></g><g clip-path="url(#6201a9c24e)"><g clip-path="url(#00d4ece52f)"><path fill="#ff5722" d="M 88.078125 10.980469 L 115.441406 10.980469 L 115.441406 38.347656 L 88.078125 38.347656 Z M 88.078125 10.980469 " fill-opacity="1" fill-rule="nonzero"/></g></g><g clip-path="url(#e4c590e3ac)"><g clip-path="url(#576520f4cd)"><path fill="#ff5722" d="M 12.777344 48.410156 L 40.144531 48.410156 L 40.144531 75.769531 L 12.777344 75.769531 Z M 12.777344 48.410156 " fill-opacity="1" fill-rule="nonzero"/></g></g><g clip-path="url(#7551bea1c5)"><g clip-path="url(#a1da298766)"><path fill="#ff5722" d="M 50.457031 48.5 L 77.816406 48.5 L 77.816406 75.867188 L 50.457031 75.867188 Z M 50.457031 48.5 " fill-opacity="1" fill-rule="nonzero"/></g></g><g clip-path="url(#c1f30444aa)"><g clip-path="url(#b9bff8be1e)"><path fill="#ff5722" d="M 50.402344 86.179688 L 77.761719 86.179688 L 77.761719 113.542969 L 50.402344 113.542969 Z M 50.402344 86.179688 " fill-opacity="1" fill-rule="nonzero"/></g></g><g clip-path="url(#aeddfd5966)"><g clip-path="url(#f385788dcf)"><path fill="#ff5722" d="M 88.023438 86.085938 L 115.386719 86.085938 L 115.386719 113.449219 L 88.023438 113.449219 Z M 88.023438 86.085938 " fill-opacity="1" fill-rule="nonzero"/></g></g><path stroke-linecap="butt" transform="matrix(0.540068, -0.540068, 0.540068, 0.540068, 68.314674, 53.684273)" fill="none" stroke-linejoin="miter" d="M 0.00223266 4.000758 L 50.86386 4.000758 " stroke="#ff5722" stroke-width="8" stroke-opacity="1" stroke-miterlimit="4"/><path stroke-linecap="butt" transform="matrix(0, -0.763772, 0.763772, 0, 23.40259, 51.285096)" fill="none" stroke-linejoin="miter" d="M -0.0000783709 3.999153 L 20.319506 3.999153 " stroke="#ff5722" stroke-width="8" stroke-opacity="1" stroke-miterlimit="4"/><g clip-path="url(#fa58ba9b8c)"><path stroke-linecap="butt" transform="matrix(0.540068, 0.540068, -0.540068, 0.540068, 36.249777, 67.709547)" fill="none" stroke-linejoin="miter" d="M 0.00149327 4.000865 L 40.845579 4.000865 " stroke="#ff5722" stroke-width="8" stroke-opacity="1" stroke-miterlimit="4"/></g><path stroke-linecap="butt" transform="matrix(0.763772, 0, 0, 0.763772, 75.036817, 96.7134)" fill="none" stroke-linejoin="miter" d="M 0.00294053 4.001366 L 29.993891 4.001366 " stroke="#ff5722" stroke-width="8" stroke-opacity="1" stroke-miterlimit="4"/><g clip-path="url(#58c9074fe2)"><g clip-path="url(#68fcae013f)"><path fill="#ffffff" d="M 12.457031 10.574219 L 39.929688 10.574219 L 39.929688 38.046875 L 12.457031 38.046875 Z M 12.457031 10.574219 " fill-opacity="1" fill-rule="nonzero"/></g></g><g clip-path="url(#d10ba3ef4f)"><g clip-path="url(#fdb4bed61b)"><path fill="#ffffff" d="M 88.058594 10.574219 L 115.527344 10.574219 L 115.527344 38.046875 L 88.058594 38.046875 Z M 88.058594 10.574219 " fill-opacity="1" fill-rule="nonzero"/></g></g><g clip-path="url(#b80bb4f1c3)"><g clip-path="url(#a159a5addd)"><path fill="#ffffff" d="M 12.457031 48.148438 L 39.929688 48.148438 L 39.929688 75.621094 L 12.457031 75.621094 Z M 12.457031 48.148438 " fill-opacity="1" fill-rule="nonzero"/></g></g><g clip-path="url(#d30923e7c0)"><g clip-path="url(#b59f1f5440)"><path fill="#ffffff" d="M 50.285156 48.242188 L 77.757812 48.242188 L 77.757812 75.714844 L 50.285156 75.714844 Z M 50.285156 48.242188 " fill-opacity="1" fill-rule="nonzero"/></g></g><g clip-path="url(#89d32b64a4)"><g clip-path="url(#c5a27b40a0)"><path fill="#ffffff" d="M 50.230469 86.070312 L 77.703125 86.070312 L 77.703125 113.539062 L 50.230469 113.539062 Z M 50.230469 86.070312 " fill-opacity="1" fill-rule="nonzero"/></g></g><g clip-path="url(#c1e016bf61)"><g clip-path="url(#1356ecef6e)"><path fill="#ffffff" d="M 88 85.976562 L 115.472656 85.976562 L 115.472656 113.449219 L 88 113.449219 Z M 88 85.976562 " fill-opacity="1" fill-rule="nonzero"/></g></g><g clip-path="url(#e4fc20d62c)"><path stroke-linecap="butt" transform="matrix(0.149506, -0.149506, 0.149506, 0.149506, 68.141501, 53.372583)" fill="none" stroke-linejoin="miter" d="M -0.0110131 15.002436 L 184.47647 15.002436 " stroke="#ffffff" stroke-width="30" stroke-opacity="1" stroke-miterlimit="4"/></g><path stroke-linecap="butt" transform="matrix(0, -0.211434, 0.211434, 0, 23.023482, 51.039602)" fill="none" stroke-linejoin="miter" d="M 0.00255197 15.001527 L 73.699515 15.001527 " stroke="#ffffff" stroke-width="30" stroke-opacity="1" stroke-miterlimit="4"/><g clip-path="url(#2c93fdb3bb)"><path stroke-linecap="butt" transform="matrix(0.149506, 0.149506, -0.149506, 0.149506, 36.097271, 67.452889)" fill="none" stroke-linejoin="miter" d="M 0.00207854 14.996783 L 148.145971 14.996783 " stroke="#ffffff" stroke-width="30" stroke-opacity="1" stroke-miterlimit="4"/></g><path stroke-linecap="butt" transform="matrix(0.211434, 0, 0, 0.211434, 74.963831, 96.540801)" fill="none" stroke-linejoin="miter" d="M 0.00479065 14.993516 L 108.785868 14.993516 " stroke="#ffffff" stroke-width="30" stroke-opacity="1" stroke-miterlimit="4"/></svg>