<svg xmlns="http://www.w3.org/2000/svg" xmlns:xlink="http://www.w3.org/1999/xlink" width="500" zoomAndPan="magnify" viewBox="0 0 375 374.999991" height="500" preserveAspectRatio="xMidYMid meet" version="1.0"><defs><clipPath id="16303fc185"><path d="M 5.640625 3.933594 L 103.089844 3.933594 L 103.089844 101.378906 L 5.640625 101.378906 Z M 5.640625 3.933594 " clip-rule="nonzero"/></clipPath><clipPath id="834372cc25"><path d="M 54.367188 3.933594 C 27.457031 3.933594 5.640625 25.746094 5.640625 52.65625 C 5.640625 79.566406 27.457031 101.378906 54.367188 101.378906 C 81.273438 101.378906 103.089844 79.566406 103.089844 52.65625 C 103.089844 25.746094 81.273438 3.933594 54.367188 3.933594 Z M 54.367188 3.933594 " clip-rule="nonzero"/></clipPath><clipPath id="6e2785b885"><path d="M 273.804688 3.933594 L 371.25 3.933594 L 371.25 101.378906 L 273.804688 101.378906 Z M 273.804688 3.933594 " clip-rule="nonzero"/></clipPath><clipPath id="a42e882a47"><path d="M 322.527344 3.933594 C 295.617188 3.933594 273.804688 25.746094 273.804688 52.65625 C 273.804688 79.566406 295.617188 101.378906 322.527344 101.378906 C 349.4375 101.378906 371.25 79.566406 371.25 52.65625 C 371.25 25.746094 349.4375 3.933594 322.527344 3.933594 Z M 322.527344 3.933594 " clip-rule="nonzero"/></clipPath><clipPath id="68a90c599f"><path d="M 5.640625 137.21875 L 103.089844 137.21875 L 103.089844 234.667969 L 5.640625 234.667969 Z M 5.640625 137.21875 " clip-rule="nonzero"/></clipPath><clipPath id="2635e27b70"><path d="M 54.367188 137.21875 C 27.457031 137.21875 5.640625 159.035156 5.640625 185.941406 C 5.640625 212.851562 27.457031 234.667969 54.367188 234.667969 C 81.273438 234.667969 103.089844 212.851562 103.089844 185.941406 C 103.089844 159.035156 81.273438 137.21875 54.367188 137.21875 Z M 54.367188 137.21875 " clip-rule="nonzero"/></clipPath><clipPath id="0d2a427ffb"><path d="M 139.820312 137.550781 L 237.269531 137.550781 L 237.269531 234.996094 L 139.820312 234.996094 Z M 139.820312 137.550781 " clip-rule="nonzero"/></clipPath><clipPath id="01c3a89806"><path d="M 188.546875 137.550781 C 161.636719 137.550781 139.820312 159.363281 139.820312 186.273438 C 139.820312 213.183594 161.636719 234.996094 188.546875 234.996094 C 215.453125 234.996094 237.269531 213.183594 237.269531 186.273438 C 237.269531 159.363281 215.453125 137.550781 188.546875 137.550781 Z M 188.546875 137.550781 " clip-rule="nonzero"/></clipPath><clipPath id="e4cfc9be56"><path d="M 139.625 271.730469 L 237.070312 271.730469 L 237.070312 369.175781 L 139.625 369.175781 Z M 139.625 271.730469 " clip-rule="nonzero"/></clipPath><clipPath id="448366e7df"><path d="M 188.347656 271.730469 C 161.4375 271.730469 139.625 293.542969 139.625 320.453125 C 139.625 347.363281 161.4375 369.175781 188.347656 369.175781 C 215.257812 369.175781 237.070312 347.363281 237.070312 320.453125 C 237.070312 293.542969 215.257812 271.730469 188.347656 271.730469 Z M 188.347656 271.730469 " clip-rule="nonzero"/></clipPath><clipPath id="a14b8876f6"><path d="M 273.605469 271.398438 L 371.050781 271.398438 L 371.050781 368.847656 L 273.605469 368.847656 Z M 273.605469 271.398438 " clip-rule="nonzero"/></clipPath><clipPath id="f8da43c3cd"><path d="M 322.328125 271.398438 C 295.417969 271.398438 273.605469 293.214844 273.605469 320.125 C 273.605469 347.03125 295.417969 368.847656 322.328125 368.847656 C 349.238281 368.847656 371.050781 347.03125 371.050781 320.125 C 371.050781 293.214844 349.238281 271.398438 322.328125 271.398438 Z M 322.328125 271.398438 " clip-rule="nonzero"/></clipPath></defs><g clip-path="url(#16303fc185)"><g clip-path="url(#834372cc25)"><path fill="#303841" d="M 5.640625 3.933594 L 103.089844 3.933594 L 103.089844 101.378906 L 5.640625 101.378906 Z M 5.640625 3.933594 " fill-opacity="1" fill-rule="nonzero"/></g></g><g clip-path="url(#6e2785b885)"><g clip-path="url(#a42e882a47)"><path fill="#303841" d="M 273.804688 3.933594 L 371.25 3.933594 L 371.25 101.378906 L 273.804688 101.378906 Z M 273.804688 3.933594 " fill-opacity="1" fill-rule="nonzero"/></g></g><g clip-path="url(#68a90c599f)"><g clip-path="url(#2635e27b70)"><path fill="#303841" d="M 5.640625 137.21875 L 103.089844 137.21875 L 103.089844 234.667969 L 5.640625 234.667969 Z M 5.640625 137.21875 " fill-opacity="1" fill-rule="nonzero"/></g></g><g clip-path="url(#0d2a427ffb)"><g clip-path="url(#01c3a89806)"><path fill="#303841" d="M 139.820312 137.550781 L 237.269531 137.550781 L 237.269531 234.996094 L 139.820312 234.996094 Z M 139.820312 137.550781 " fill-opacity="1" fill-rule="nonzero"/></g></g><g clip-path="url(#e4cfc9be56)"><g clip-path="url(#448366e7df)"><path fill="#303841" d="M 139.625 271.730469 L 237.070312 271.730469 L 237.070312 369.175781 L 139.625 369.175781 Z M 139.625 271.730469 " fill-opacity="1" fill-rule="nonzero"/></g></g><g clip-path="url(#a14b8876f6)"><g clip-path="url(#f8da43c3cd)"><path fill="#303841" d="M 273.605469 271.398438 L 371.050781 271.398438 L 371.050781 368.847656 L 273.605469 368.847656 Z M 273.605469 271.398438 " fill-opacity="1" fill-rule="nonzero"/></g></g><path stroke-linecap="butt" transform="matrix(0.53033, -0.53033, 0.53033, 0.53033, 203.158203, 155.746468)" fill="none" stroke-linejoin="miter" d="M -0.00148845 15.001728 L 184.465004 15.001728 " stroke="#303841" stroke-width="30" stroke-opacity="1" stroke-miterlimit="4"/><path stroke-linecap="butt" transform="matrix(0, -0.75, 0.75, 0, 43.11515, 147.470894)" fill="none" stroke-linejoin="miter" d="M -0.00234925 14.99751 L 73.690364 14.99751 " stroke="#303841" stroke-width="30" stroke-opacity="1" stroke-miterlimit="4"/><path stroke-linecap="butt" transform="matrix(0.53033, 0.53033, -0.53033, 0.53033, 89.490627, 205.692277)" fill="none" stroke-linejoin="miter" d="M 0.000650004 15.001631 L 148.13953 15.001631 " stroke="#303841" stroke-width="30" stroke-opacity="1" stroke-miterlimit="4"/><path stroke-linecap="butt" transform="matrix(0.75, 0, 0, 0.75, 227.358431, 308.873183)" fill="none" stroke-linejoin="miter" d="M 0.00125844 15.002424 L 108.777307 15.002424 " stroke="#303841" stroke-width="30" stroke-opacity="1" stroke-miterlimit="4"/></svg>