<svg xmlns="http://www.w3.org/2000/svg" xmlns:xlink="http://www.w3.org/1999/xlink" width="500" zoomAndPan="magnify" viewBox="0 0 375 135.000003" height="180" preserveAspectRatio="xMidYMid meet" version="1.0"><defs><clipPath id="b425781d75"><path d="M 9.550781 8.53125 L 38.25 8.53125 L 38.25 37.230469 L 9.550781 37.230469 Z M 9.550781 8.53125 " clip-rule="nonzero"/></clipPath><clipPath id="900c71320e"><path d="M 23.898438 8.53125 C 15.976562 8.53125 9.550781 14.957031 9.550781 22.878906 C 9.550781 30.804688 15.976562 37.230469 23.898438 37.230469 C 31.828125 37.230469 38.25 30.804688 38.25 22.878906 C 38.25 14.957031 31.828125 8.53125 23.898438 8.53125 Z M 23.898438 8.53125 " clip-rule="nonzero"/></clipPath><clipPath id="e1091035b7"><path d="M 88.527344 8.53125 L 117.226562 8.53125 L 117.226562 37.230469 L 88.527344 37.230469 Z M 88.527344 8.53125 " clip-rule="nonzero"/></clipPath><clipPath id="59a5746c10"><path d="M 102.878906 8.53125 C 94.953125 8.53125 88.527344 14.957031 88.527344 22.878906 C 88.527344 30.804688 94.953125 37.230469 102.878906 37.230469 C 110.800781 37.230469 117.226562 30.804688 117.226562 22.878906 C 117.226562 14.957031 110.800781 8.53125 102.878906 8.53125 Z M 102.878906 8.53125 " clip-rule="nonzero"/></clipPath><clipPath id="be64ca6af9"><path d="M 9.550781 47.785156 L 38.25 47.785156 L 38.25 76.484375 L 9.550781 76.484375 Z M 9.550781 47.785156 " clip-rule="nonzero"/></clipPath><clipPath id="3bd8db63cb"><path d="M 23.898438 47.785156 C 15.976562 47.785156 9.550781 54.207031 9.550781 62.136719 C 9.550781 70.058594 15.976562 76.484375 23.898438 76.484375 C 31.828125 76.484375 38.25 70.058594 38.25 62.136719 C 38.25 54.207031 31.828125 47.785156 23.898438 47.785156 Z M 23.898438 47.785156 " clip-rule="nonzero"/></clipPath><clipPath id="8cb24c9ea7"><path d="M 49.070312 47.882812 L 77.765625 47.882812 L 77.765625 76.582031 L 49.070312 76.582031 Z M 49.070312 47.882812 " clip-rule="nonzero"/></clipPath><clipPath id="3371907e92"><path d="M 63.417969 47.882812 C 55.492188 47.882812 49.070312 54.308594 49.070312 62.230469 C 49.070312 70.160156 55.492188 76.582031 63.417969 76.582031 C 71.339844 76.582031 77.765625 70.160156 77.765625 62.230469 C 77.765625 54.308594 71.339844 47.882812 63.417969 47.882812 Z M 63.417969 47.882812 " clip-rule="nonzero"/></clipPath><clipPath id="0236cf3411"><path d="M 49.011719 87.402344 L 77.707031 87.402344 L 77.707031 116.097656 L 49.011719 116.097656 Z M 49.011719 87.402344 " clip-rule="nonzero"/></clipPath><clipPath id="1140f97be0"><path d="M 63.359375 87.402344 C 55.4375 87.402344 49.011719 93.824219 49.011719 101.75 C 49.011719 109.671875 55.4375 116.097656 63.359375 116.097656 C 71.289062 116.097656 77.707031 109.671875 77.707031 101.75 C 77.707031 93.824219 71.289062 87.402344 63.359375 87.402344 Z M 63.359375 87.402344 " clip-rule="nonzero"/></clipPath><clipPath id="c2a90022e3"><path d="M 88.46875 87.300781 L 117.167969 87.300781 L 117.167969 116.003906 L 88.46875 116.003906 Z M 88.46875 87.300781 " clip-rule="nonzero"/></clipPath><clipPath id="1eb1455b8e"><path d="M 102.820312 87.300781 C 94.894531 87.300781 88.46875 93.726562 88.46875 101.65625 C 88.46875 109.578125 94.894531 116.003906 102.820312 116.003906 C 110.742188 116.003906 117.167969 109.578125 117.167969 101.65625 C 117.167969 93.726562 110.742188 87.300781 102.820312 87.300781 Z M 102.820312 87.300781 " clip-rule="nonzero"/></clipPath><clipPath id="760ab422f5"><path d="M 1.378906 36 L 90 36 L 90 128 L 1.378906 128 Z M 1.378906 36 " clip-rule="nonzero"/></clipPath><clipPath id="6f423fd81c"><path d="M 41 65 L 125 65 L 125 134.007812 L 41 134.007812 Z M 41 65 " clip-rule="nonzero"/></clipPath><clipPath id="871d0e9a17"><path d="M 9.492188 8.53125 L 38.195312 8.53125 L 38.195312 37.230469 L 9.492188 37.230469 Z M 9.492188 8.53125 " clip-rule="nonzero"/></clipPath><clipPath id="b4eba3c3c0"><path d="M 23.839844 8.53125 C 15.917969 8.53125 9.492188 14.957031 9.492188 22.878906 C 9.492188 30.804688 15.917969 37.230469 23.839844 37.230469 C 31.769531 37.230469 38.195312 30.804688 38.195312 22.878906 C 38.195312 14.957031 31.769531 8.53125 23.839844 8.53125 Z M 23.839844 8.53125 " clip-rule="nonzero"/></clipPath><clipPath id="5fbd7f7495"><path d="M 88.46875 8.53125 L 117.167969 8.53125 L 117.167969 37.230469 L 88.46875 37.230469 Z M 88.46875 8.53125 " clip-rule="nonzero"/></clipPath><clipPath id="4f1c73462c"><path d="M 102.820312 8.53125 C 94.894531 8.53125 88.46875 14.957031 88.46875 22.878906 C 88.46875 30.804688 94.894531 37.230469 102.820312 37.230469 C 110.742188 37.230469 117.167969 30.804688 117.167969 22.878906 C 117.167969 14.957031 110.742188 8.53125 102.820312 8.53125 Z M 102.820312 8.53125 " clip-rule="nonzero"/></clipPath><clipPath id="ecea5d1ec2"><path d="M 9.492188 47.785156 L 38.195312 47.785156 L 38.195312 76.484375 L 9.492188 76.484375 Z M 9.492188 47.785156 " clip-rule="nonzero"/></clipPath><clipPath id="1724c1a35d"><path d="M 23.839844 47.785156 C 15.917969 47.785156 9.492188 54.207031 9.492188 62.136719 C 9.492188 70.058594 15.917969 76.484375 23.839844 76.484375 C 31.769531 76.484375 38.195312 70.058594 38.195312 62.136719 C 38.195312 54.207031 31.769531 47.785156 23.839844 47.785156 Z M 23.839844 47.785156 " clip-rule="nonzero"/></clipPath><clipPath id="939d5efee7"><path d="M 49.011719 47.882812 L 77.707031 47.882812 L 77.707031 76.582031 L 49.011719 76.582031 Z M 49.011719 47.882812 " clip-rule="nonzero"/></clipPath><clipPath id="374c05d851"><path d="M 63.359375 47.882812 C 55.4375 47.882812 49.011719 54.308594 49.011719 62.230469 C 49.011719 70.160156 55.4375 76.582031 63.359375 76.582031 C 71.289062 76.582031 77.707031 70.160156 77.707031 62.230469 C 77.707031 54.308594 71.289062 47.882812 63.359375 47.882812 Z M 63.359375 47.882812 " clip-rule="nonzero"/></clipPath><clipPath id="6bf47ac7b5"><path d="M 48.953125 87.402344 L 77.648438 87.402344 L 77.648438 116.097656 L 48.953125 116.097656 Z M 48.953125 87.402344 " clip-rule="nonzero"/></clipPath><clipPath id="25d0b05c93"><path d="M 63.300781 87.402344 C 55.378906 87.402344 48.953125 93.824219 48.953125 101.75 C 48.953125 109.671875 55.378906 116.097656 63.300781 116.097656 C 71.230469 116.097656 77.648438 109.671875 77.648438 101.75 C 77.648438 93.824219 71.230469 87.402344 63.300781 87.402344 Z M 63.300781 87.402344 " clip-rule="nonzero"/></clipPath><clipPath id="e7a0bbff62"><path d="M 88.410156 87.300781 L 117.109375 87.300781 L 117.109375 116.003906 L 88.410156 116.003906 Z M 88.410156 87.300781 " clip-rule="nonzero"/></clipPath><clipPath id="ffe53ca30f"><path d="M 102.761719 87.300781 C 94.835938 87.300781 88.410156 93.726562 88.410156 101.65625 C 88.410156 109.578125 94.835938 116.003906 102.761719 116.003906 C 110.6875 116.003906 117.109375 109.578125 117.109375 101.65625 C 117.109375 93.726562 110.6875 87.300781 102.761719 87.300781 Z M 102.761719 87.300781 " clip-rule="nonzero"/></clipPath><clipPath id="4dda3f7917"><path d="M 1.378906 34 L 92 34 L 92 130 L 1.378906 130 Z M 1.378906 34 " clip-rule="nonzero"/></clipPath></defs><g clip-path="url(#b425781d75)"><g clip-path="url(#900c71320e)"><path fill="#ff5722" d="M 9.550781 8.53125 L 38.25 8.53125 L 38.25 37.230469 L 9.550781 37.230469 Z M 9.550781 8.53125 " fill-opacity="1" fill-rule="nonzero"/></g></g><g clip-path="url(#e1091035b7)"><g clip-path="url(#59a5746c10)"><path fill="#ff5722" d="M 88.527344 8.53125 L 117.226562 8.53125 L 117.226562 37.230469 L 88.527344 37.230469 Z M 88.527344 8.53125 " fill-opacity="1" fill-rule="nonzero"/></g></g><g clip-path="url(#be64ca6af9)"><g clip-path="url(#3bd8db63cb)"><path fill="#ff5722" d="M 9.550781 47.785156 L 38.25 47.785156 L 38.25 76.484375 L 9.550781 76.484375 Z M 9.550781 47.785156 " fill-opacity="1" fill-rule="nonzero"/></g></g><g clip-path="url(#8cb24c9ea7)"><g clip-path="url(#3371907e92)"><path fill="#ff5722" d="M 49.070312 47.882812 L 77.765625 47.882812 L 77.765625 76.582031 L 49.070312 76.582031 Z M 49.070312 47.882812 " fill-opacity="1" fill-rule="nonzero"/></g></g><g clip-path="url(#0236cf3411)"><g clip-path="url(#1140f97be0)"><path fill="#ff5722" d="M 49.011719 87.402344 L 77.707031 87.402344 L 77.707031 116.097656 L 49.011719 116.097656 Z M 49.011719 87.402344 " fill-opacity="1" fill-rule="nonzero"/></g></g><g clip-path="url(#c2a90022e3)"><g clip-path="url(#1eb1455b8e)"><path fill="#ff5722" d="M 88.46875 87.300781 L 117.167969 87.300781 L 117.167969 116.003906 L 88.46875 116.003906 Z M 88.46875 87.300781 " fill-opacity="1" fill-rule="nonzero"/></g></g><path stroke-linecap="butt" transform="matrix(0.567208, -0.565669, 0.565669, 0.567208, 71.315708, 49.828669)" fill="none" stroke-linejoin="miter" d="M -0.000365173 3.999909 L 33.739085 3.998895 " stroke="#ff5722" stroke-width="8" stroke-opacity="1" stroke-miterlimit="4"/><path stroke-linecap="butt" transform="matrix(0, -0.801066, 0.801066, 0, 20.694579, 47.783383)" fill="none" stroke-linejoin="miter" d="M 0.0026628 3.999493 L 13.178464 3.999493 " stroke="#ff5722" stroke-width="8" stroke-opacity="1" stroke-miterlimit="4"/><g clip-path="url(#760ab422f5)"><path stroke-linecap="butt" transform="matrix(0.565323, 0.567553, -0.567553, 0.565323, 36.297377, 70.041837)" fill="none" stroke-linejoin="miter" d="M -0.00190486 4.004669 L 33.972036 3.996407 " stroke="#ff5722" stroke-width="8" stroke-opacity="1" stroke-miterlimit="4"/></g><g clip-path="url(#6f423fd81c)"><path stroke-linecap="butt" transform="matrix(0.801064, -0.00197501, 0.00197501, 0.801064, 77.702038, 98.510547)" fill="none" stroke-linejoin="miter" d="M -0.003629 4.000042 L 13.430655 3.99903 " stroke="#ff5722" stroke-width="8" stroke-opacity="1" stroke-miterlimit="4"/></g><path fill="#303841" d="M 141.617188 111.054688 L 133.125 111.054688 L 133.125 61.386719 L 141.617188 61.386719 Z M 132.4375 48.21875 C 132.4375 46.84375 132.855469 45.679688 133.691406 44.734375 C 134.535156 43.789062 135.78125 43.3125 137.429688 43.3125 C 139.085938 43.3125 140.339844 43.789062 141.199219 44.734375 C 142.054688 45.679688 142.484375 46.84375 142.484375 48.21875 C 142.484375 49.601562 142.054688 50.753906 141.199219 51.675781 C 140.339844 52.589844 139.085938 53.042969 137.429688 53.042969 C 135.78125 53.042969 134.535156 52.589844 133.691406 51.675781 C 132.855469 50.753906 132.4375 49.601562 132.4375 48.21875 Z M 132.4375 48.21875 " fill-opacity="1" fill-rule="nonzero"/><path fill="#303841" d="M 158.242188 61.386719 L 158.527344 67.628906 C 162.320312 62.855469 167.277344 60.46875 173.398438 60.46875 C 183.886719 60.46875 189.175781 66.394531 189.269531 78.242188 L 189.269531 111.054688 L 180.789062 111.054688 L 180.789062 78.195312 C 180.757812 74.613281 179.929688 71.964844 178.320312 70.25 C 176.71875 68.539062 174.21875 67.679688 170.828125 67.679688 C 168.066406 67.679688 165.644531 68.414062 163.566406 69.882812 C 161.484375 71.351562 159.867188 73.28125 158.710938 75.675781 L 158.710938 111.054688 L 150.214844 111.054688 L 150.214844 61.386719 Z M 158.242188 61.386719 " fill-opacity="1" fill-rule="nonzero"/><path fill="#303841" d="M 208.605469 49.371094 L 208.605469 61.386719 L 217.886719 61.386719 L 217.886719 67.964844 L 208.605469 67.964844 L 208.605469 98.753906 C 208.605469 100.75 209.015625 102.238281 209.84375 103.226562 C 210.675781 104.21875 212.085938 104.710938 214.082031 104.710938 C 215.058594 104.710938 216.40625 104.527344 218.121094 104.160156 L 218.121094 111.054688 C 215.882812 111.664062 213.707031 111.972656 211.59375 111.972656 C 207.796875 111.972656 204.941406 110.828125 203.015625 108.535156 C 201.089844 106.230469 200.128906 102.972656 200.128906 98.753906 L 200.128906 67.964844 L 191.085938 67.964844 L 191.085938 61.386719 L 200.128906 61.386719 L 200.128906 49.371094 Z M 208.605469 49.371094 " fill-opacity="1" fill-rule="nonzero"/><path fill="#303841" d="M 243.421875 111.972656 C 236.6875 111.972656 231.210938 109.765625 226.984375 105.347656 C 222.765625 100.921875 220.660156 95.007812 220.660156 87.605469 L 220.660156 86.039062 C 220.660156 81.109375 221.597656 76.71875 223.480469 72.851562 C 225.355469 68.980469 227.988281 65.953125 231.375 63.757812 C 234.753906 61.566406 238.421875 60.46875 242.371094 60.46875 C 248.820312 60.46875 253.835938 62.601562 257.40625 66.863281 C 260.988281 71.113281 262.78125 77.199219 262.78125 85.121094 L 262.78125 88.65625 L 229.152344 88.65625 C 229.273438 93.554688 230.707031 97.511719 233.441406 100.523438 C 236.179688 103.539062 239.65625 105.046875 243.875 105.046875 C 246.878906 105.046875 249.417969 104.4375 251.5 103.210938 C 253.578125 101.988281 255.398438 100.363281 256.957031 98.335938 L 262.148438 102.375 C 257.984375 108.777344 251.742188 111.972656 243.421875 111.972656 Z M 242.371094 67.445312 C 238.941406 67.445312 236.066406 68.699219 233.742188 71.203125 C 231.414062 73.695312 229.976562 77.1875 229.421875 81.683594 L 254.304688 81.683594 L 254.304688 81.03125 C 254.058594 76.726562 252.894531 73.386719 250.816406 71.019531 C 248.734375 68.640625 245.917969 67.445312 242.371094 67.445312 Z M 242.371094 67.445312 " fill-opacity="1" fill-rule="nonzero"/><path fill="#303841" d="M 268.355469 40.558594 L 276.851562 40.558594 L 276.851562 111.054688 L 268.355469 111.054688 Z M 268.355469 40.558594 " fill-opacity="1" fill-rule="nonzero"/><path fill="#303841" d="M 294.679688 111.054688 L 286.183594 111.054688 L 286.183594 61.386719 L 294.679688 61.386719 Z M 285.5 48.21875 C 285.5 46.84375 285.917969 45.679688 286.75 44.734375 C 287.59375 43.789062 288.839844 43.3125 290.488281 43.3125 C 292.144531 43.3125 293.402344 43.789062 294.261719 44.734375 C 295.117188 45.679688 295.546875 46.84375 295.546875 48.21875 C 295.546875 49.601562 295.117188 50.753906 294.261719 51.675781 C 293.402344 52.589844 292.144531 53.042969 290.488281 53.042969 C 288.839844 53.042969 287.59375 52.589844 286.75 51.675781 C 285.917969 50.753906 285.5 49.601562 285.5 48.21875 Z M 285.5 48.21875 " fill-opacity="1" fill-rule="nonzero"/><path fill="#303841" d="M 312.503906 111.054688 L 304.011719 111.054688 L 304.011719 61.386719 L 312.503906 61.386719 Z M 303.324219 48.21875 C 303.324219 46.84375 303.742188 45.679688 304.578125 44.734375 C 305.421875 43.789062 306.667969 43.3125 308.316406 43.3125 C 309.972656 43.3125 311.226562 43.789062 312.085938 44.734375 C 312.941406 45.679688 313.371094 46.84375 313.371094 48.21875 C 313.371094 49.601562 312.941406 50.753906 312.085938 51.675781 C 311.226562 52.589844 309.972656 53.042969 308.316406 53.042969 C 306.667969 53.042969 305.421875 52.589844 304.578125 51.675781 C 303.742188 50.753906 303.324219 49.601562 303.324219 48.21875 Z M 303.324219 48.21875 " fill-opacity="1" fill-rule="nonzero"/><path fill="#303841" d="M 318.847656 85.769531 C 318.847656 80.898438 319.804688 76.519531 321.71875 72.636719 C 323.628906 68.757812 326.292969 65.757812 329.695312 63.640625 C 333.109375 61.53125 337.011719 60.46875 341.394531 60.46875 C 348.148438 60.46875 353.613281 62.816406 357.785156 67.496094 C 361.964844 72.183594 364.058594 78.40625 364.058594 86.171875 L 364.058594 86.773438 C 364.058594 91.613281 363.128906 95.949219 361.273438 99.789062 C 359.425781 103.628906 356.78125 106.625 353.34375 108.769531 C 349.90625 110.902344 345.953125 111.972656 341.480469 111.972656 C 334.746094 111.972656 329.289062 109.632812 325.109375 104.945312 C 320.933594 100.265625 318.847656 94.066406 318.847656 86.355469 Z M 327.394531 86.773438 C 327.394531 92.277344 328.667969 96.703125 331.214844 100.039062 C 333.773438 103.378906 337.195312 105.046875 341.480469 105.046875 C 345.792969 105.046875 349.222656 103.355469 351.757812 99.972656 C 354.296875 96.59375 355.566406 91.859375 355.566406 85.769531 C 355.566406 80.320312 354.269531 75.902344 351.691406 72.519531 C 349.109375 69.140625 345.675781 67.445312 341.394531 67.445312 C 337.199219 67.445312 333.820312 69.113281 331.25 72.453125 C 328.679688 75.789062 327.394531 80.5625 327.394531 86.773438 Z M 327.394531 86.773438 " fill-opacity="1" fill-rule="nonzero"/><g clip-path="url(#871d0e9a17)"><g clip-path="url(#b4eba3c3c0)"><path fill="#ff5722" d="M 9.492188 8.53125 L 38.195312 8.53125 L 38.195312 37.230469 L 9.492188 37.230469 Z M 9.492188 8.53125 " fill-opacity="1" fill-rule="nonzero"/></g></g><g clip-path="url(#5fbd7f7495)"><g clip-path="url(#4f1c73462c)"><path fill="#ff5722" d="M 88.46875 8.53125 L 117.167969 8.53125 L 117.167969 37.230469 L 88.46875 37.230469 Z M 88.46875 8.53125 " fill-opacity="1" fill-rule="nonzero"/></g></g><g clip-path="url(#ecea5d1ec2)"><g clip-path="url(#1724c1a35d)"><path fill="#ff5722" d="M 9.492188 47.785156 L 38.195312 47.785156 L 38.195312 76.484375 L 9.492188 76.484375 Z M 9.492188 47.785156 " fill-opacity="1" fill-rule="nonzero"/></g></g><g clip-path="url(#939d5efee7)"><g clip-path="url(#374c05d851)"><path fill="#ff5722" d="M 49.011719 47.882812 L 77.707031 47.882812 L 77.707031 76.582031 L 49.011719 76.582031 Z M 49.011719 47.882812 " fill-opacity="1" fill-rule="nonzero"/></g></g><g clip-path="url(#6bf47ac7b5)"><g clip-path="url(#25d0b05c93)"><path fill="#ff5722" d="M 48.953125 87.402344 L 77.648438 87.402344 L 77.648438 116.097656 L 48.953125 116.097656 Z M 48.953125 87.402344 " fill-opacity="1" fill-rule="nonzero"/></g></g><g clip-path="url(#e7a0bbff62)"><g clip-path="url(#ffe53ca30f)"><path fill="#ff5722" d="M 88.410156 87.300781 L 117.109375 87.300781 L 117.109375 116.003906 L 88.410156 116.003906 Z M 88.410156 87.300781 " fill-opacity="1" fill-rule="nonzero"/></g></g><path stroke-linecap="butt" transform="matrix(0.566439, -0.566439, 0.566439, 0.566439, 67.740737, 53.318444)" fill="none" stroke-linejoin="miter" d="M -0.000368855 4.002698 L 50.865646 4.002698 " stroke="#ff5722" stroke-width="8" stroke-opacity="1" stroke-miterlimit="4"/><path stroke-linecap="butt" transform="matrix(0, -0.801066, 0.801066, 0, 20.635653, 50.802127)" fill="none" stroke-linejoin="miter" d="M -0.00319667 3.999908 L 20.321281 3.999908 " stroke="#ff5722" stroke-width="8" stroke-opacity="1" stroke-miterlimit="4"/><g clip-path="url(#4dda3f7917)"><path stroke-linecap="butt" transform="matrix(0.566439, 0.566439, -0.566439, 0.566439, 34.110149, 68.02857)" fill="none" stroke-linejoin="miter" d="M 0.00168177 4.002817 L 40.84414 3.999369 " stroke="#ff5722" stroke-width="8" stroke-opacity="1" stroke-miterlimit="4"/></g><path stroke-linecap="butt" transform="matrix(0.801066, 0, 0, 0.801066, 74.791115, 98.448603)" fill="none" stroke-linejoin="miter" d="M 0.00231407 4.004222 L 29.996523 4.004222 " stroke="#ff5722" stroke-width="8" stroke-opacity="1" stroke-miterlimit="4"/></svg>