<svg xmlns="http://www.w3.org/2000/svg" xmlns:xlink="http://www.w3.org/1999/xlink" width="500" zoomAndPan="magnify" viewBox="0 0 375 374.999991" height="500" preserveAspectRatio="xMidYMid meet" version="1.0"><defs><g/><clipPath id="e6d0b4ec36"><path d="M 20.726562 132.492188 L 47.597656 132.492188 L 47.597656 159.363281 L 20.726562 159.363281 Z M 20.726562 132.492188 " clip-rule="nonzero"/></clipPath><clipPath id="354de5630a"><path d="M 34.160156 132.492188 C 26.742188 132.492188 20.726562 138.507812 20.726562 145.925781 C 20.726562 153.347656 26.742188 159.363281 34.160156 159.363281 C 41.582031 159.363281 47.597656 153.347656 47.597656 145.925781 C 47.597656 138.507812 41.582031 132.492188 34.160156 132.492188 Z M 34.160156 132.492188 " clip-rule="nonzero"/></clipPath><clipPath id="e3727fb215"><path d="M 94.667969 132.492188 L 121.539062 132.492188 L 121.539062 159.363281 L 94.667969 159.363281 Z M 94.667969 132.492188 " clip-rule="nonzero"/></clipPath><clipPath id="e41e061ee0"><path d="M 108.105469 132.492188 C 100.683594 132.492188 94.667969 138.507812 94.667969 145.925781 C 94.667969 153.347656 100.683594 159.363281 108.105469 159.363281 C 115.523438 159.363281 121.539062 153.347656 121.539062 145.925781 C 121.539062 138.507812 115.523438 132.492188 108.105469 132.492188 Z M 108.105469 132.492188 " clip-rule="nonzero"/></clipPath><clipPath id="22ea9257c2"><path d="M 20.726562 169.246094 L 47.597656 169.246094 L 47.597656 196.113281 L 20.726562 196.113281 Z M 20.726562 169.246094 " clip-rule="nonzero"/></clipPath><clipPath id="201fe90bda"><path d="M 34.160156 169.246094 C 26.742188 169.246094 20.726562 175.257812 20.726562 182.679688 C 20.726562 190.097656 26.742188 196.113281 34.160156 196.113281 C 41.582031 196.113281 47.597656 190.097656 47.597656 182.679688 C 47.597656 175.257812 41.582031 169.246094 34.160156 169.246094 Z M 34.160156 169.246094 " clip-rule="nonzero"/></clipPath><clipPath id="778f0fa957"><path d="M 57.726562 169.335938 L 84.59375 169.335938 L 84.59375 196.207031 L 57.726562 196.207031 Z M 57.726562 169.335938 " clip-rule="nonzero"/></clipPath><clipPath id="1c2d49abb5"><path d="M 71.160156 169.335938 C 63.738281 169.335938 57.726562 175.351562 57.726562 182.769531 C 57.726562 190.191406 63.738281 196.207031 71.160156 196.207031 C 78.578125 196.207031 84.59375 190.191406 84.59375 182.769531 C 84.59375 175.351562 78.578125 169.335938 71.160156 169.335938 Z M 71.160156 169.335938 " clip-rule="nonzero"/></clipPath><clipPath id="991e22acdb"><path d="M 57.671875 206.335938 L 84.539062 206.335938 L 84.539062 233.203125 L 57.671875 233.203125 Z M 57.671875 206.335938 " clip-rule="nonzero"/></clipPath><clipPath id="1925e77b28"><path d="M 71.105469 206.335938 C 63.6875 206.335938 57.671875 212.347656 57.671875 219.769531 C 57.671875 227.1875 63.6875 233.203125 71.105469 233.203125 C 78.527344 233.203125 84.539062 227.1875 84.539062 219.769531 C 84.539062 212.347656 78.527344 206.335938 71.105469 206.335938 Z M 71.105469 206.335938 " clip-rule="nonzero"/></clipPath><clipPath id="222bef69ce"><path d="M 94.613281 206.242188 L 121.484375 206.242188 L 121.484375 233.113281 L 94.613281 233.113281 Z M 94.613281 206.242188 " clip-rule="nonzero"/></clipPath><clipPath id="8ccda4fe4c"><path d="M 108.050781 206.242188 C 100.628906 206.242188 94.613281 212.257812 94.613281 219.679688 C 94.613281 227.097656 100.628906 233.113281 108.050781 233.113281 C 115.46875 233.113281 121.484375 227.097656 121.484375 219.679688 C 121.484375 212.257812 115.46875 206.242188 108.050781 206.242188 Z M 108.050781 206.242188 " clip-rule="nonzero"/></clipPath><clipPath id="509ce2ac5e"><path d="M 20.761719 132.492188 L 47.609375 132.492188 L 47.609375 159.335938 L 20.761719 159.335938 Z M 20.761719 132.492188 " clip-rule="nonzero"/></clipPath><clipPath id="1ad9456dd9"><path d="M 34.1875 132.492188 C 26.773438 132.492188 20.761719 138.5 20.761719 145.914062 C 20.761719 153.328125 26.773438 159.335938 34.1875 159.335938 C 41.597656 159.335938 47.609375 153.328125 47.609375 145.914062 C 47.609375 138.5 41.597656 132.492188 34.1875 132.492188 Z M 34.1875 132.492188 " clip-rule="nonzero"/></clipPath><clipPath id="f3b23e23d8"><path d="M 94.640625 132.492188 L 121.484375 132.492188 L 121.484375 159.335938 L 94.640625 159.335938 Z M 94.640625 132.492188 " clip-rule="nonzero"/></clipPath><clipPath id="d49c4fb905"><path d="M 108.0625 132.492188 C 100.648438 132.492188 94.640625 138.5 94.640625 145.914062 C 94.640625 153.328125 100.648438 159.335938 108.0625 159.335938 C 115.476562 159.335938 121.484375 153.328125 121.484375 145.914062 C 121.484375 138.5 115.476562 132.492188 108.0625 132.492188 Z M 108.0625 132.492188 " clip-rule="nonzero"/></clipPath><clipPath id="82b5d2a0cf"><path d="M 20.761719 169.210938 L 47.609375 169.210938 L 47.609375 196.058594 L 20.761719 196.058594 Z M 20.761719 169.210938 " clip-rule="nonzero"/></clipPath><clipPath id="aabe5304be"><path d="M 34.1875 169.210938 C 26.773438 169.210938 20.761719 175.222656 20.761719 182.632812 C 20.761719 190.046875 26.773438 196.058594 34.1875 196.058594 C 41.597656 196.058594 47.609375 190.046875 47.609375 182.632812 C 47.609375 175.222656 41.597656 169.210938 34.1875 169.210938 Z M 34.1875 169.210938 " clip-rule="nonzero"/></clipPath><clipPath id="a1f0e15a14"><path d="M 57.726562 169.300781 L 84.574219 169.300781 L 84.574219 196.148438 L 57.726562 196.148438 Z M 57.726562 169.300781 " clip-rule="nonzero"/></clipPath><clipPath id="ee412160cb"><path d="M 71.152344 169.300781 C 63.738281 169.300781 57.726562 175.3125 57.726562 182.726562 C 57.726562 190.136719 63.738281 196.148438 71.152344 196.148438 C 78.5625 196.148438 84.574219 190.136719 84.574219 182.726562 C 84.574219 175.3125 78.5625 169.300781 71.152344 169.300781 Z M 71.152344 169.300781 " clip-rule="nonzero"/></clipPath><clipPath id="f062e748ef"><path d="M 57.671875 206.265625 L 84.519531 206.265625 L 84.519531 233.113281 L 57.671875 233.113281 Z M 57.671875 206.265625 " clip-rule="nonzero"/></clipPath><clipPath id="108e502f0f"><path d="M 71.097656 206.265625 C 63.683594 206.265625 57.671875 212.277344 57.671875 219.691406 C 57.671875 227.101562 63.683594 233.113281 71.097656 233.113281 C 78.507812 233.113281 84.519531 227.101562 84.519531 219.691406 C 84.519531 212.277344 78.507812 206.265625 71.097656 206.265625 Z M 71.097656 206.265625 " clip-rule="nonzero"/></clipPath><clipPath id="89087f8d68"><path d="M 94.585938 206.175781 L 121.429688 206.175781 L 121.429688 233.023438 L 94.585938 233.023438 Z M 94.585938 206.175781 " clip-rule="nonzero"/></clipPath><clipPath id="0a4dae9665"><path d="M 108.007812 206.175781 C 100.59375 206.175781 94.585938 212.1875 94.585938 219.597656 C 94.585938 227.011719 100.59375 233.023438 108.007812 233.023438 C 115.421875 233.023438 121.429688 227.011719 121.429688 219.597656 C 121.429688 212.1875 115.421875 206.175781 108.007812 206.175781 Z M 108.007812 206.175781 " clip-rule="nonzero"/></clipPath></defs><g clip-path="url(#e6d0b4ec36)"><g clip-path="url(#354de5630a)"><path fill="#303841" d="M 20.726562 132.492188 L 47.597656 132.492188 L 47.597656 159.363281 L 20.726562 159.363281 Z M 20.726562 132.492188 " fill-opacity="1" fill-rule="nonzero"/></g></g><g clip-path="url(#e3727fb215)"><g clip-path="url(#e41e061ee0)"><path fill="#303841" d="M 94.667969 132.492188 L 121.539062 132.492188 L 121.539062 159.363281 L 94.667969 159.363281 Z M 94.667969 132.492188 " fill-opacity="1" fill-rule="nonzero"/></g></g><g clip-path="url(#22ea9257c2)"><g clip-path="url(#201fe90bda)"><path fill="#303841" d="M 20.726562 169.246094 L 47.597656 169.246094 L 47.597656 196.113281 L 20.726562 196.113281 Z M 20.726562 169.246094 " fill-opacity="1" fill-rule="nonzero"/></g></g><g clip-path="url(#778f0fa957)"><g clip-path="url(#1c2d49abb5)"><path fill="#303841" d="M 57.726562 169.335938 L 84.59375 169.335938 L 84.59375 196.207031 L 57.726562 196.207031 Z M 57.726562 169.335938 " fill-opacity="1" fill-rule="nonzero"/></g></g><g clip-path="url(#991e22acdb)"><g clip-path="url(#1925e77b28)"><path fill="#303841" d="M 57.671875 206.335938 L 84.539062 206.335938 L 84.539062 233.203125 L 57.671875 233.203125 Z M 57.671875 206.335938 " fill-opacity="1" fill-rule="nonzero"/></g></g><g clip-path="url(#222bef69ce)"><g clip-path="url(#8ccda4fe4c)"><path fill="#303841" d="M 94.613281 206.242188 L 121.484375 206.242188 L 121.484375 233.113281 L 94.613281 233.113281 Z M 94.613281 206.242188 " fill-opacity="1" fill-rule="nonzero"/></g></g><path stroke-linecap="butt" transform="matrix(0.53105, -0.529609, 0.529609, 0.53105, 78.553821, 171.157546)" fill="none" stroke-linejoin="miter" d="M 0.000103612 3.999171 L 33.738709 4.001238 " stroke="#303841" stroke-width="8" stroke-opacity="1" stroke-miterlimit="4"/><path stroke-linecap="butt" transform="matrix(0, -0.75, 0.75, 0, 31.159672, 169.242644)" fill="none" stroke-linejoin="miter" d="M 0.000608782 4.000646 L 13.177693 4.000646 " stroke="#303841" stroke-width="8" stroke-opacity="1" stroke-miterlimit="4"/><path stroke-linecap="butt" transform="matrix(0.529285, 0.531373, -0.531373, 0.529285, 45.767829, 190.082169)" fill="none" stroke-linejoin="miter" d="M -0.00169635 4.001532 L 33.972636 3.997262 " stroke="#303841" stroke-width="8" stroke-opacity="1" stroke-miterlimit="4"/><path stroke-linecap="butt" transform="matrix(0.749998, -0.00184911, 0.00184911, 0.749998, 84.533034, 216.736071)" fill="none" stroke-linejoin="miter" d="M -0.00181855 3.997747 L 13.43051 3.999614 " stroke="#303841" stroke-width="8" stroke-opacity="1" stroke-miterlimit="4"/><g fill="#303841" fill-opacity="1"><g transform="translate(129.718517, 228.480175)"><g><path d="M 14.65625 0 L 6.703125 0 L 6.703125 -46.5 L 14.65625 -46.5 Z M 6.0625 -58.828125 C 6.0625 -60.117188 6.453125 -61.207031 7.234375 -62.09375 C 8.023438 -62.976562 9.191406 -63.421875 10.734375 -63.421875 C 12.285156 -63.421875 13.460938 -62.976562 14.265625 -62.09375 C 15.066406 -61.207031 15.46875 -60.117188 15.46875 -58.828125 C 15.46875 -57.535156 15.066406 -56.457031 14.265625 -55.59375 C 13.460938 -54.738281 12.285156 -54.3125 10.734375 -54.3125 C 9.191406 -54.3125 8.023438 -54.738281 7.234375 -55.59375 C 6.453125 -56.457031 6.0625 -57.535156 6.0625 -58.828125 Z M 6.0625 -58.828125 "/></g></g></g><g fill="#303841" fill-opacity="1"><g transform="translate(146.40854, 228.480175)"><g><path d="M 13.53125 -46.5 L 13.796875 -40.65625 C 17.347656 -45.125 21.988281 -47.359375 27.71875 -47.359375 C 37.539062 -47.359375 42.492188 -41.8125 42.578125 -30.71875 L 42.578125 0 L 34.640625 0 L 34.640625 -30.765625 C 34.609375 -34.117188 33.835938 -36.597656 32.328125 -38.203125 C 30.828125 -39.804688 28.488281 -40.609375 25.3125 -40.609375 C 22.726562 -40.609375 20.460938 -39.921875 18.515625 -38.546875 C 16.566406 -37.171875 15.050781 -35.363281 13.96875 -33.125 L 13.96875 0 L 6.015625 0 L 6.015625 -46.5 Z M 13.53125 -46.5 "/></g></g></g><g fill="#303841" fill-opacity="1"><g transform="translate(190.296566, 228.480175)"><g><path d="M 16.796875 -57.75 L 16.796875 -46.5 L 25.484375 -46.5 L 25.484375 -40.34375 L 16.796875 -40.34375 L 16.796875 -11.515625 C 16.796875 -9.648438 17.179688 -8.253906 17.953125 -7.328125 C 18.734375 -6.398438 20.054688 -5.9375 21.921875 -5.9375 C 22.835938 -5.9375 24.097656 -6.109375 25.703125 -6.453125 L 25.703125 0 C 23.609375 0.570312 21.570312 0.859375 19.59375 0.859375 C 16.039062 0.859375 13.363281 -0.210938 11.5625 -2.359375 C 9.757812 -4.515625 8.859375 -7.566406 8.859375 -11.515625 L 8.859375 -40.34375 L 0.390625 -40.34375 L 0.390625 -46.5 L 8.859375 -46.5 L 8.859375 -57.75 Z M 16.796875 -57.75 "/></g></g></g><g fill="#303841" fill-opacity="1"><g transform="translate(214.376885, 228.480175)"><g><path d="M 25.3125 0.859375 C 19.007812 0.859375 13.878906 -1.207031 9.921875 -5.34375 C 5.972656 -9.488281 4 -15.023438 4 -21.953125 L 4 -23.421875 C 4 -28.035156 4.878906 -32.148438 6.640625 -35.765625 C 8.398438 -39.390625 10.863281 -42.226562 14.03125 -44.28125 C 17.195312 -46.332031 20.628906 -47.359375 24.328125 -47.359375 C 30.367188 -47.359375 35.0625 -45.363281 38.40625 -41.375 C 41.757812 -37.394531 43.4375 -31.695312 43.4375 -24.28125 L 43.4375 -20.96875 L 11.953125 -20.96875 C 12.066406 -16.382812 13.40625 -12.679688 15.96875 -9.859375 C 18.53125 -7.035156 21.785156 -5.625 25.734375 -5.625 C 28.546875 -5.625 30.925781 -6.195312 32.875 -7.34375 C 34.820312 -8.488281 36.523438 -10.007812 37.984375 -11.90625 L 42.84375 -8.125 C 38.945312 -2.132812 33.101562 0.859375 25.3125 0.859375 Z M 24.328125 -40.828125 C 21.117188 -40.828125 18.425781 -39.65625 16.25 -37.3125 C 14.070312 -34.976562 12.722656 -31.707031 12.203125 -27.5 L 35.5 -27.5 L 35.5 -28.109375 C 35.269531 -32.140625 34.179688 -35.265625 32.234375 -37.484375 C 30.285156 -39.710938 27.648438 -40.828125 24.328125 -40.828125 Z M 24.328125 -40.828125 "/></g></g></g><g fill="#303841" fill-opacity="1"><g transform="translate(256.331409, 228.480175)"><g><path d="M 14.65625 0 L 6.703125 0 L 6.703125 -66 L 14.65625 -66 Z M 14.65625 0 "/></g></g></g><g fill="#303841" fill-opacity="1"><g transform="translate(273.021425, 228.480175)"><g><path d="M 14.65625 0 L 6.703125 0 L 6.703125 -46.5 L 14.65625 -46.5 Z M 6.0625 -58.828125 C 6.0625 -60.117188 6.453125 -61.207031 7.234375 -62.09375 C 8.023438 -62.976562 9.191406 -63.421875 10.734375 -63.421875 C 12.285156 -63.421875 13.460938 -62.976562 14.265625 -62.09375 C 15.066406 -61.207031 15.46875 -60.117188 15.46875 -58.828125 C 15.46875 -57.535156 15.066406 -56.457031 14.265625 -55.59375 C 13.460938 -54.738281 12.285156 -54.3125 10.734375 -54.3125 C 9.191406 -54.3125 8.023438 -54.738281 7.234375 -55.59375 C 6.453125 -56.457031 6.0625 -57.535156 6.0625 -58.828125 Z M 6.0625 -58.828125 "/></g></g></g><g fill="#303841" fill-opacity="1"><g transform="translate(289.711442, 228.480175)"><g><path d="M 14.65625 0 L 6.703125 0 L 6.703125 -46.5 L 14.65625 -46.5 Z M 6.0625 -58.828125 C 6.0625 -60.117188 6.453125 -61.207031 7.234375 -62.09375 C 8.023438 -62.976562 9.191406 -63.421875 10.734375 -63.421875 C 12.285156 -63.421875 13.460938 -62.976562 14.265625 -62.09375 C 15.066406 -61.207031 15.46875 -60.117188 15.46875 -58.828125 C 15.46875 -57.535156 15.066406 -56.457031 14.265625 -55.59375 C 13.460938 -54.738281 12.285156 -54.3125 10.734375 -54.3125 C 9.191406 -54.3125 8.023438 -54.738281 7.234375 -55.59375 C 6.453125 -56.457031 6.0625 -57.535156 6.0625 -58.828125 Z M 6.0625 -58.828125 "/></g></g></g><g fill="#303841" fill-opacity="1"><g transform="translate(306.401459, 228.480175)"><g><path d="M 3.90625 -23.671875 C 3.90625 -28.234375 4.800781 -32.332031 6.59375 -35.96875 C 8.382812 -39.601562 10.875 -42.410156 14.0625 -44.390625 C 17.257812 -46.367188 20.910156 -47.359375 25.015625 -47.359375 C 31.335938 -47.359375 36.453125 -45.164062 40.359375 -40.78125 C 44.273438 -36.394531 46.234375 -30.566406 46.234375 -23.296875 L 46.234375 -22.734375 C 46.234375 -18.203125 45.363281 -14.140625 43.625 -10.546875 C 41.894531 -6.953125 39.421875 -4.148438 36.203125 -2.140625 C 32.984375 -0.140625 29.28125 0.859375 25.09375 0.859375 C 18.789062 0.859375 13.679688 -1.332031 9.765625 -5.71875 C 5.859375 -10.101562 3.90625 -15.90625 3.90625 -23.125 Z M 11.90625 -22.734375 C 11.90625 -17.578125 13.097656 -13.4375 15.484375 -10.3125 C 17.878906 -7.1875 21.082031 -5.625 25.09375 -5.625 C 29.132812 -5.625 32.34375 -7.207031 34.71875 -10.375 C 37.09375 -13.539062 38.28125 -17.972656 38.28125 -23.671875 C 38.28125 -28.773438 37.070312 -32.910156 34.65625 -36.078125 C 32.238281 -39.242188 29.023438 -40.828125 25.015625 -40.828125 C 21.085938 -40.828125 17.921875 -39.265625 15.515625 -36.140625 C 13.109375 -33.015625 11.90625 -28.546875 11.90625 -22.734375 Z M 11.90625 -22.734375 "/></g></g></g><g clip-path="url(#509ce2ac5e)"><g clip-path="url(#1ad9456dd9)"><path fill="#303841" d="M 20.761719 132.492188 L 47.609375 132.492188 L 47.609375 159.335938 L 20.761719 159.335938 Z M 20.761719 132.492188 " fill-opacity="1" fill-rule="nonzero"/></g></g><g clip-path="url(#f3b23e23d8)"><g clip-path="url(#d49c4fb905)"><path fill="#303841" d="M 94.640625 132.492188 L 121.484375 132.492188 L 121.484375 159.335938 L 94.640625 159.335938 Z M 94.640625 132.492188 " fill-opacity="1" fill-rule="nonzero"/></g></g><g clip-path="url(#82b5d2a0cf)"><g clip-path="url(#aabe5304be)"><path fill="#303841" d="M 20.761719 169.210938 L 47.609375 169.210938 L 47.609375 196.058594 L 20.761719 196.058594 Z M 20.761719 169.210938 " fill-opacity="1" fill-rule="nonzero"/></g></g><g clip-path="url(#a1f0e15a14)"><g clip-path="url(#ee412160cb)"><path fill="#303841" d="M 57.726562 169.300781 L 84.574219 169.300781 L 84.574219 196.148438 L 57.726562 196.148438 Z M 57.726562 169.300781 " fill-opacity="1" fill-rule="nonzero"/></g></g><g clip-path="url(#f062e748ef)"><g clip-path="url(#108e502f0f)"><path fill="#303841" d="M 57.671875 206.265625 L 84.519531 206.265625 L 84.519531 233.113281 L 57.671875 233.113281 Z M 57.671875 206.265625 " fill-opacity="1" fill-rule="nonzero"/></g></g><g clip-path="url(#89087f8d68)"><g clip-path="url(#0a4dae9665)"><path fill="#303841" d="M 94.585938 206.175781 L 121.429688 206.175781 L 121.429688 233.023438 L 94.585938 233.023438 Z M 94.585938 206.175781 " fill-opacity="1" fill-rule="nonzero"/></g></g><path stroke-linecap="butt" transform="matrix(0.53033, -0.53033, 0.53033, 0.53033, 75.246585, 174.384788)" fill="none" stroke-linejoin="miter" d="M -0.00228387 4.00093 L 50.821019 4.00093 " stroke="#303841" stroke-width="8" stroke-opacity="1" stroke-miterlimit="4"/><path stroke-linecap="butt" transform="matrix(0, -0.75, 0.75, 0, 31.184559, 172.034182)" fill="none" stroke-linejoin="miter" d="M -0.0012986 3.998713 L 20.300786 3.998713 " stroke="#303841" stroke-width="8" stroke-opacity="1" stroke-miterlimit="4"/><path stroke-linecap="butt" transform="matrix(0.53033, 0.53033, -0.53033, 0.53033, 43.791186, 188.14758)" fill="none" stroke-linejoin="miter" d="M -0.00119366 4.002384 L 40.812128 4.002384 " stroke="#303841" stroke-width="8" stroke-opacity="1" stroke-miterlimit="4"/><path stroke-linecap="butt" transform="matrix(0.75, 0, 0, 0.75, 81.843558, 216.599239)" fill="none" stroke-linejoin="miter" d="M 0.000255566 3.997889 L 29.969008 3.997889 " stroke="#303841" stroke-width="8" stroke-opacity="1" stroke-miterlimit="4"/></svg>