<svg xmlns="http://www.w3.org/2000/svg" xmlns:xlink="http://www.w3.org/1999/xlink" width="500" zoomAndPan="magnify" viewBox="0 0 375 374.999991" height="500" preserveAspectRatio="xMidYMid meet" version="1.0"><defs><g/><clipPath id="d1ed4c6844"><path d="M 20.726562 132.492188 L 47.597656 132.492188 L 47.597656 159.363281 L 20.726562 159.363281 Z M 20.726562 132.492188 " clip-rule="nonzero"/></clipPath><clipPath id="e502506598"><path d="M 34.160156 132.492188 C 26.742188 132.492188 20.726562 138.507812 20.726562 145.925781 C 20.726562 153.347656 26.742188 159.363281 34.160156 159.363281 C 41.582031 159.363281 47.597656 153.347656 47.597656 145.925781 C 47.597656 138.507812 41.582031 132.492188 34.160156 132.492188 Z M 34.160156 132.492188 " clip-rule="nonzero"/></clipPath><clipPath id="d6a15f5369"><path d="M 94.667969 132.492188 L 121.539062 132.492188 L 121.539062 159.363281 L 94.667969 159.363281 Z M 94.667969 132.492188 " clip-rule="nonzero"/></clipPath><clipPath id="1d3777e8a9"><path d="M 108.105469 132.492188 C 100.683594 132.492188 94.667969 138.507812 94.667969 145.925781 C 94.667969 153.347656 100.683594 159.363281 108.105469 159.363281 C 115.523438 159.363281 121.539062 153.347656 121.539062 145.925781 C 121.539062 138.507812 115.523438 132.492188 108.105469 132.492188 Z M 108.105469 132.492188 " clip-rule="nonzero"/></clipPath><clipPath id="88f8a479d7"><path d="M 20.726562 169.246094 L 47.597656 169.246094 L 47.597656 196.113281 L 20.726562 196.113281 Z M 20.726562 169.246094 " clip-rule="nonzero"/></clipPath><clipPath id="dc85243b41"><path d="M 34.160156 169.246094 C 26.742188 169.246094 20.726562 175.257812 20.726562 182.679688 C 20.726562 190.097656 26.742188 196.113281 34.160156 196.113281 C 41.582031 196.113281 47.597656 190.097656 47.597656 182.679688 C 47.597656 175.257812 41.582031 169.246094 34.160156 169.246094 Z M 34.160156 169.246094 " clip-rule="nonzero"/></clipPath><clipPath id="2227737cb4"><path d="M 57.726562 169.335938 L 84.59375 169.335938 L 84.59375 196.207031 L 57.726562 196.207031 Z M 57.726562 169.335938 " clip-rule="nonzero"/></clipPath><clipPath id="cbd95f9b77"><path d="M 71.160156 169.335938 C 63.738281 169.335938 57.726562 175.351562 57.726562 182.769531 C 57.726562 190.191406 63.738281 196.207031 71.160156 196.207031 C 78.578125 196.207031 84.59375 190.191406 84.59375 182.769531 C 84.59375 175.351562 78.578125 169.335938 71.160156 169.335938 Z M 71.160156 169.335938 " clip-rule="nonzero"/></clipPath><clipPath id="c3053a250c"><path d="M 57.671875 206.335938 L 84.539062 206.335938 L 84.539062 233.203125 L 57.671875 233.203125 Z M 57.671875 206.335938 " clip-rule="nonzero"/></clipPath><clipPath id="c4cdf48315"><path d="M 71.105469 206.335938 C 63.6875 206.335938 57.671875 212.347656 57.671875 219.769531 C 57.671875 227.1875 63.6875 233.203125 71.105469 233.203125 C 78.527344 233.203125 84.539062 227.1875 84.539062 219.769531 C 84.539062 212.347656 78.527344 206.335938 71.105469 206.335938 Z M 71.105469 206.335938 " clip-rule="nonzero"/></clipPath><clipPath id="702e2c18a2"><path d="M 94.613281 206.242188 L 121.484375 206.242188 L 121.484375 233.113281 L 94.613281 233.113281 Z M 94.613281 206.242188 " clip-rule="nonzero"/></clipPath><clipPath id="503aa3ab34"><path d="M 108.050781 206.242188 C 100.628906 206.242188 94.613281 212.257812 94.613281 219.679688 C 94.613281 227.097656 100.628906 233.113281 108.050781 233.113281 C 115.46875 233.113281 121.484375 227.097656 121.484375 219.679688 C 121.484375 212.257812 115.46875 206.242188 108.050781 206.242188 Z M 108.050781 206.242188 " clip-rule="nonzero"/></clipPath><clipPath id="dd8e79da43"><path d="M 20.671875 132.492188 L 47.542969 132.492188 L 47.542969 159.363281 L 20.671875 159.363281 Z M 20.671875 132.492188 " clip-rule="nonzero"/></clipPath><clipPath id="747e6f25df"><path d="M 34.105469 132.492188 C 26.6875 132.492188 20.671875 138.507812 20.671875 145.925781 C 20.671875 153.347656 26.6875 159.363281 34.105469 159.363281 C 41.527344 159.363281 47.542969 153.347656 47.542969 145.925781 C 47.542969 138.507812 41.527344 132.492188 34.105469 132.492188 Z M 34.105469 132.492188 " clip-rule="nonzero"/></clipPath><clipPath id="9fa3344996"><path d="M 94.613281 132.492188 L 121.484375 132.492188 L 121.484375 159.363281 L 94.613281 159.363281 Z M 94.613281 132.492188 " clip-rule="nonzero"/></clipPath><clipPath id="9983773de1"><path d="M 108.050781 132.492188 C 100.628906 132.492188 94.613281 138.507812 94.613281 145.925781 C 94.613281 153.347656 100.628906 159.363281 108.050781 159.363281 C 115.46875 159.363281 121.484375 153.347656 121.484375 145.925781 C 121.484375 138.507812 115.46875 132.492188 108.050781 132.492188 Z M 108.050781 132.492188 " clip-rule="nonzero"/></clipPath><clipPath id="9e2f3f6078"><path d="M 20.671875 169.246094 L 47.542969 169.246094 L 47.542969 196.113281 L 20.671875 196.113281 Z M 20.671875 169.246094 " clip-rule="nonzero"/></clipPath><clipPath id="2635a8213f"><path d="M 34.105469 169.246094 C 26.6875 169.246094 20.671875 175.257812 20.671875 182.679688 C 20.671875 190.097656 26.6875 196.113281 34.105469 196.113281 C 41.527344 196.113281 47.542969 190.097656 47.542969 182.679688 C 47.542969 175.257812 41.527344 169.246094 34.105469 169.246094 Z M 34.105469 169.246094 " clip-rule="nonzero"/></clipPath><clipPath id="00464cff98"><path d="M 57.671875 169.335938 L 84.539062 169.335938 L 84.539062 196.207031 L 57.671875 196.207031 Z M 57.671875 169.335938 " clip-rule="nonzero"/></clipPath><clipPath id="221c7490a8"><path d="M 71.105469 169.335938 C 63.6875 169.335938 57.671875 175.351562 57.671875 182.769531 C 57.671875 190.191406 63.6875 196.207031 71.105469 196.207031 C 78.527344 196.207031 84.539062 190.191406 84.539062 182.769531 C 84.539062 175.351562 78.527344 169.335938 71.105469 169.335938 Z M 71.105469 169.335938 " clip-rule="nonzero"/></clipPath><clipPath id="31213772e8"><path d="M 57.617188 206.335938 L 84.484375 206.335938 L 84.484375 233.203125 L 57.617188 233.203125 Z M 57.617188 206.335938 " clip-rule="nonzero"/></clipPath><clipPath id="494c289dd9"><path d="M 71.050781 206.335938 C 63.632812 206.335938 57.617188 212.347656 57.617188 219.769531 C 57.617188 227.1875 63.632812 233.203125 71.050781 233.203125 C 78.472656 233.203125 84.484375 227.1875 84.484375 219.769531 C 84.484375 212.347656 78.472656 206.335938 71.050781 206.335938 Z M 71.050781 206.335938 " clip-rule="nonzero"/></clipPath><clipPath id="9132e68c6f"><path d="M 94.558594 206.242188 L 121.429688 206.242188 L 121.429688 233.113281 L 94.558594 233.113281 Z M 94.558594 206.242188 " clip-rule="nonzero"/></clipPath><clipPath id="b5a01d4bd8"><path d="M 107.996094 206.242188 C 100.574219 206.242188 94.558594 212.257812 94.558594 219.679688 C 94.558594 227.097656 100.574219 233.113281 107.996094 233.113281 C 115.414062 233.113281 121.429688 227.097656 121.429688 219.679688 C 121.429688 212.257812 115.414062 206.242188 107.996094 206.242188 Z M 107.996094 206.242188 " clip-rule="nonzero"/></clipPath></defs><g clip-path="url(#d1ed4c6844)"><g clip-path="url(#e502506598)"><path fill="#ff5722" d="M 20.726562 132.492188 L 47.597656 132.492188 L 47.597656 159.363281 L 20.726562 159.363281 Z M 20.726562 132.492188 " fill-opacity="1" fill-rule="nonzero"/></g></g><g clip-path="url(#d6a15f5369)"><g clip-path="url(#1d3777e8a9)"><path fill="#ff5722" d="M 94.667969 132.492188 L 121.539062 132.492188 L 121.539062 159.363281 L 94.667969 159.363281 Z M 94.667969 132.492188 " fill-opacity="1" fill-rule="nonzero"/></g></g><g clip-path="url(#88f8a479d7)"><g clip-path="url(#dc85243b41)"><path fill="#ff5722" d="M 20.726562 169.246094 L 47.597656 169.246094 L 47.597656 196.113281 L 20.726562 196.113281 Z M 20.726562 169.246094 " fill-opacity="1" fill-rule="nonzero"/></g></g><g clip-path="url(#2227737cb4)"><g clip-path="url(#cbd95f9b77)"><path fill="#ff5722" d="M 57.726562 169.335938 L 84.59375 169.335938 L 84.59375 196.207031 L 57.726562 196.207031 Z M 57.726562 169.335938 " fill-opacity="1" fill-rule="nonzero"/></g></g><g clip-path="url(#c3053a250c)"><g clip-path="url(#c4cdf48315)"><path fill="#ff5722" d="M 57.671875 206.335938 L 84.539062 206.335938 L 84.539062 233.203125 L 57.671875 233.203125 Z M 57.671875 206.335938 " fill-opacity="1" fill-rule="nonzero"/></g></g><g clip-path="url(#702e2c18a2)"><g clip-path="url(#503aa3ab34)"><path fill="#ff5722" d="M 94.613281 206.242188 L 121.484375 206.242188 L 121.484375 233.113281 L 94.613281 233.113281 Z M 94.613281 206.242188 " fill-opacity="1" fill-rule="nonzero"/></g></g><path stroke-linecap="butt" transform="matrix(0.53105, -0.529609, 0.529609, 0.53105, 78.553821, 171.157546)" fill="none" stroke-linejoin="miter" d="M 0.000103612 3.999171 L 33.738709 4.001238 " stroke="#ff5722" stroke-width="8" stroke-opacity="1" stroke-miterlimit="4"/><path stroke-linecap="butt" transform="matrix(0, -0.75, 0.75, 0, 31.159672, 169.242644)" fill="none" stroke-linejoin="miter" d="M 0.000608782 4.000646 L 13.177693 4.000646 " stroke="#ff5722" stroke-width="8" stroke-opacity="1" stroke-miterlimit="4"/><path stroke-linecap="butt" transform="matrix(0.529285, 0.531373, -0.531373, 0.529285, 45.767829, 190.082169)" fill="none" stroke-linejoin="miter" d="M -0.00169635 4.001532 L 33.972636 3.997262 " stroke="#ff5722" stroke-width="8" stroke-opacity="1" stroke-miterlimit="4"/><path stroke-linecap="butt" transform="matrix(0.749998, -0.00184911, 0.00184911, 0.749998, 84.533034, 216.736071)" fill="none" stroke-linejoin="miter" d="M -0.00181855 3.997747 L 13.43051 3.999614 " stroke="#ff5722" stroke-width="8" stroke-opacity="1" stroke-miterlimit="4"/><g fill="#303841" fill-opacity="1"><g transform="translate(129.718517, 228.480175)"><g><path d="M 14.65625 0 L 6.703125 0 L 6.703125 -46.5 L 14.65625 -46.5 Z M 6.0625 -58.828125 C 6.0625 -60.117188 6.453125 -61.207031 7.234375 -62.09375 C 8.023438 -62.976562 9.191406 -63.421875 10.734375 -63.421875 C 12.285156 -63.421875 13.460938 -62.976562 14.265625 -62.09375 C 15.066406 -61.207031 15.46875 -60.117188 15.46875 -58.828125 C 15.46875 -57.535156 15.066406 -56.457031 14.265625 -55.59375 C 13.460938 -54.738281 12.285156 -54.3125 10.734375 -54.3125 C 9.191406 -54.3125 8.023438 -54.738281 7.234375 -55.59375 C 6.453125 -56.457031 6.0625 -57.535156 6.0625 -58.828125 Z M 6.0625 -58.828125 "/></g></g></g><g fill="#303841" fill-opacity="1"><g transform="translate(146.40854, 228.480175)"><g><path d="M 13.53125 -46.5 L 13.796875 -40.65625 C 17.347656 -45.125 21.988281 -47.359375 27.71875 -47.359375 C 37.539062 -47.359375 42.492188 -41.8125 42.578125 -30.71875 L 42.578125 0 L 34.640625 0 L 34.640625 -30.765625 C 34.609375 -34.117188 33.835938 -36.597656 32.328125 -38.203125 C 30.828125 -39.804688 28.488281 -40.609375 25.3125 -40.609375 C 22.726562 -40.609375 20.460938 -39.921875 18.515625 -38.546875 C 16.566406 -37.171875 15.050781 -35.363281 13.96875 -33.125 L 13.96875 0 L 6.015625 0 L 6.015625 -46.5 Z M 13.53125 -46.5 "/></g></g></g><g fill="#303841" fill-opacity="1"><g transform="translate(190.296566, 228.480175)"><g><path d="M 16.796875 -57.75 L 16.796875 -46.5 L 25.484375 -46.5 L 25.484375 -40.34375 L 16.796875 -40.34375 L 16.796875 -11.515625 C 16.796875 -9.648438 17.179688 -8.253906 17.953125 -7.328125 C 18.734375 -6.398438 20.054688 -5.9375 21.921875 -5.9375 C 22.835938 -5.9375 24.097656 -6.109375 25.703125 -6.453125 L 25.703125 0 C 23.609375 0.570312 21.570312 0.859375 19.59375 0.859375 C 16.039062 0.859375 13.363281 -0.210938 11.5625 -2.359375 C 9.757812 -4.515625 8.859375 -7.566406 8.859375 -11.515625 L 8.859375 -40.34375 L 0.390625 -40.34375 L 0.390625 -46.5 L 8.859375 -46.5 L 8.859375 -57.75 Z M 16.796875 -57.75 "/></g></g></g><g fill="#303841" fill-opacity="1"><g transform="translate(214.376885, 228.480175)"><g><path d="M 25.3125 0.859375 C 19.007812 0.859375 13.878906 -1.207031 9.921875 -5.34375 C 5.972656 -9.488281 4 -15.023438 4 -21.953125 L 4 -23.421875 C 4 -28.035156 4.878906 -32.148438 6.640625 -35.765625 C 8.398438 -39.390625 10.863281 -42.226562 14.03125 -44.28125 C 17.195312 -46.332031 20.628906 -47.359375 24.328125 -47.359375 C 30.367188 -47.359375 35.0625 -45.363281 38.40625 -41.375 C 41.757812 -37.394531 43.4375 -31.695312 43.4375 -24.28125 L 43.4375 -20.96875 L 11.953125 -20.96875 C 12.066406 -16.382812 13.40625 -12.679688 15.96875 -9.859375 C 18.53125 -7.035156 21.785156 -5.625 25.734375 -5.625 C 28.546875 -5.625 30.925781 -6.195312 32.875 -7.34375 C 34.820312 -8.488281 36.523438 -10.007812 37.984375 -11.90625 L 42.84375 -8.125 C 38.945312 -2.132812 33.101562 0.859375 25.3125 0.859375 Z M 24.328125 -40.828125 C 21.117188 -40.828125 18.425781 -39.65625 16.25 -37.3125 C 14.070312 -34.976562 12.722656 -31.707031 12.203125 -27.5 L 35.5 -27.5 L 35.5 -28.109375 C 35.269531 -32.140625 34.179688 -35.265625 32.234375 -37.484375 C 30.285156 -39.710938 27.648438 -40.828125 24.328125 -40.828125 Z M 24.328125 -40.828125 "/></g></g></g><g fill="#303841" fill-opacity="1"><g transform="translate(256.331409, 228.480175)"><g><path d="M 14.65625 0 L 6.703125 0 L 6.703125 -66 L 14.65625 -66 Z M 14.65625 0 "/></g></g></g><g fill="#303841" fill-opacity="1"><g transform="translate(273.021425, 228.480175)"><g><path d="M 14.65625 0 L 6.703125 0 L 6.703125 -46.5 L 14.65625 -46.5 Z M 6.0625 -58.828125 C 6.0625 -60.117188 6.453125 -61.207031 7.234375 -62.09375 C 8.023438 -62.976562 9.191406 -63.421875 10.734375 -63.421875 C 12.285156 -63.421875 13.460938 -62.976562 14.265625 -62.09375 C 15.066406 -61.207031 15.46875 -60.117188 15.46875 -58.828125 C 15.46875 -57.535156 15.066406 -56.457031 14.265625 -55.59375 C 13.460938 -54.738281 12.285156 -54.3125 10.734375 -54.3125 C 9.191406 -54.3125 8.023438 -54.738281 7.234375 -55.59375 C 6.453125 -56.457031 6.0625 -57.535156 6.0625 -58.828125 Z M 6.0625 -58.828125 "/></g></g></g><g fill="#303841" fill-opacity="1"><g transform="translate(289.711442, 228.480175)"><g><path d="M 14.65625 0 L 6.703125 0 L 6.703125 -46.5 L 14.65625 -46.5 Z M 6.0625 -58.828125 C 6.0625 -60.117188 6.453125 -61.207031 7.234375 -62.09375 C 8.023438 -62.976562 9.191406 -63.421875 10.734375 -63.421875 C 12.285156 -63.421875 13.460938 -62.976562 14.265625 -62.09375 C 15.066406 -61.207031 15.46875 -60.117188 15.46875 -58.828125 C 15.46875 -57.535156 15.066406 -56.457031 14.265625 -55.59375 C 13.460938 -54.738281 12.285156 -54.3125 10.734375 -54.3125 C 9.191406 -54.3125 8.023438 -54.738281 7.234375 -55.59375 C 6.453125 -56.457031 6.0625 -57.535156 6.0625 -58.828125 Z M 6.0625 -58.828125 "/></g></g></g><g fill="#303841" fill-opacity="1"><g transform="translate(306.401459, 228.480175)"><g><path d="M 3.90625 -23.671875 C 3.90625 -28.234375 4.800781 -32.332031 6.59375 -35.96875 C 8.382812 -39.601562 10.875 -42.410156 14.0625 -44.390625 C 17.257812 -46.367188 20.910156 -47.359375 25.015625 -47.359375 C 31.335938 -47.359375 36.453125 -45.164062 40.359375 -40.78125 C 44.273438 -36.394531 46.234375 -30.566406 46.234375 -23.296875 L 46.234375 -22.734375 C 46.234375 -18.203125 45.363281 -14.140625 43.625 -10.546875 C 41.894531 -6.953125 39.421875 -4.148438 36.203125 -2.140625 C 32.984375 -0.140625 29.28125 0.859375 25.09375 0.859375 C 18.789062 0.859375 13.679688 -1.332031 9.765625 -5.71875 C 5.859375 -10.101562 3.90625 -15.90625 3.90625 -23.125 Z M 11.90625 -22.734375 C 11.90625 -17.578125 13.097656 -13.4375 15.484375 -10.3125 C 17.878906 -7.1875 21.082031 -5.625 25.09375 -5.625 C 29.132812 -5.625 32.34375 -7.207031 34.71875 -10.375 C 37.09375 -13.539062 38.28125 -17.972656 38.28125 -23.671875 C 38.28125 -28.773438 37.070312 -32.910156 34.65625 -36.078125 C 32.238281 -39.242188 29.023438 -40.828125 25.015625 -40.828125 C 21.085938 -40.828125 17.921875 -39.265625 15.515625 -36.140625 C 13.109375 -33.015625 11.90625 -28.546875 11.90625 -22.734375 Z M 11.90625 -22.734375 "/></g></g></g><g clip-path="url(#dd8e79da43)"><g clip-path="url(#747e6f25df)"><path fill="#ff5722" d="M 20.671875 132.492188 L 47.542969 132.492188 L 47.542969 159.363281 L 20.671875 159.363281 Z M 20.671875 132.492188 " fill-opacity="1" fill-rule="nonzero"/></g></g><g clip-path="url(#9fa3344996)"><g clip-path="url(#9983773de1)"><path fill="#ff5722" d="M 94.613281 132.492188 L 121.484375 132.492188 L 121.484375 159.363281 L 94.613281 159.363281 Z M 94.613281 132.492188 " fill-opacity="1" fill-rule="nonzero"/></g></g><g clip-path="url(#9e2f3f6078)"><g clip-path="url(#2635a8213f)"><path fill="#ff5722" d="M 20.671875 169.246094 L 47.542969 169.246094 L 47.542969 196.113281 L 20.671875 196.113281 Z M 20.671875 169.246094 " fill-opacity="1" fill-rule="nonzero"/></g></g><g clip-path="url(#00464cff98)"><g clip-path="url(#221c7490a8)"><path fill="#ff5722" d="M 57.671875 169.335938 L 84.539062 169.335938 L 84.539062 196.207031 L 57.671875 196.207031 Z M 57.671875 169.335938 " fill-opacity="1" fill-rule="nonzero"/></g></g><g clip-path="url(#31213772e8)"><g clip-path="url(#494c289dd9)"><path fill="#ff5722" d="M 57.617188 206.335938 L 84.484375 206.335938 L 84.484375 233.203125 L 57.617188 233.203125 Z M 57.617188 206.335938 " fill-opacity="1" fill-rule="nonzero"/></g></g><g clip-path="url(#9132e68c6f)"><g clip-path="url(#b5a01d4bd8)"><path fill="#ff5722" d="M 94.558594 206.242188 L 121.429688 206.242188 L 121.429688 233.113281 L 94.558594 233.113281 Z M 94.558594 206.242188 " fill-opacity="1" fill-rule="nonzero"/></g></g><path stroke-linecap="butt" transform="matrix(0.53033, -0.53033, 0.53033, 0.53033, 75.206748, 174.424865)" fill="none" stroke-linejoin="miter" d="M -0.000596058 4.000704 L 50.866901 4.000704 " stroke="#ff5722" stroke-width="8" stroke-opacity="1" stroke-miterlimit="4"/><path stroke-linecap="butt" transform="matrix(0, -0.75, 0.75, 0, 31.104502, 172.068944)" fill="none" stroke-linejoin="miter" d="M -0.0018248 4.001289 L 20.321093 4.001289 " stroke="#ff5722" stroke-width="8" stroke-opacity="1" stroke-miterlimit="4"/><path stroke-linecap="butt" transform="matrix(0.53033, 0.53033, -0.53033, 0.53033, 43.720031, 188.197238)" fill="none" stroke-linejoin="miter" d="M 0.000659475 4.002648 L 40.847127 3.998966 " stroke="#ff5722" stroke-width="8" stroke-opacity="1" stroke-miterlimit="4"/><path stroke-linecap="butt" transform="matrix(0.75, 0, 0, 0.75, 81.807678, 216.678091)" fill="none" stroke-linejoin="miter" d="M 0.00122056 4.002128 L 29.996014 4.002128 " stroke="#ff5722" stroke-width="8" stroke-opacity="1" stroke-miterlimit="4"/></svg>