<svg xmlns="http://www.w3.org/2000/svg" xmlns:xlink="http://www.w3.org/1999/xlink" width="500" zoomAndPan="magnify" viewBox="0 0 375 374.999991" height="500" preserveAspectRatio="xMidYMid meet" version="1.0"><defs><clipPath id="b32288af6b"><path d="M 29 37.597656 L 348.75 37.597656 L 348.75 361 L 29 361 Z M 29 37.597656 " clip-rule="nonzero"/></clipPath><clipPath id="42a0ac86f3"><path d="M 348.679688 198.976562 C 348.679688 250.738281 348.652344 302.511719 348.730469 354.269531 C 348.730469 358.5625 346.996094 360.585938 342.832031 360.703125 C 341.136719 360.753906 339.445312 360.753906 337.738281 360.753906 L 40.523438 360.753906 C 33.542969 360.753906 30.050781 357.199219 30.050781 350.082031 C 30.050781 301.492188 30.039062 252.914062 30.089844 204.324219 C 30.089844 201.472656 28.574219 197.332031 33.835938 197.28125 C 38.789062 197.230469 38.6875 200.847656 38.6875 204.425781 C 38.664062 248.761719 39.070312 293.109375 38.472656 337.445312 C 38.230469 355.734375 39.171875 352.296875 53.359375 352.308594 C 138.425781 352.335938 223.492188 352.195312 308.558594 352.144531 C 316.621094 352.144531 324.683594 352.078125 332.734375 352.4375 C 338.296875 352.679688 339.96875 350.527344 339.96875 345 C 339.828125 248.253906 339.863281 151.507812 339.851562 54.761719 C 339.851562 46.625 339.050781 45.78125 330.632812 45.808594 C 299.667969 45.910156 268.71875 46.101562 237.757812 46.242188 C 223.125 46.304688 208.488281 46.292969 193.855469 46.484375 C 190.988281 46.519531 189.371094 45.796875 189.257812 42.777344 C 189.15625 39.9375 189.703125 37.632812 193.242188 37.617188 L 340.261719 37.617188 C 348.628906 37.617188 348.652344 37.644531 348.652344 46.242188 L 348.652344 198.976562 Z M 348.679688 198.976562 " clip-rule="nonzero"/></clipPath><clipPath id="de0b399705"><path d="M 0 0.597656 L 319.75 0.597656 L 319.75 323.960938 L 0 323.960938 Z M 0 0.597656 " clip-rule="nonzero"/></clipPath><clipPath id="2a4a37e2f8"><path d="M 319.679688 161.976562 C 319.679688 213.738281 319.652344 265.511719 319.730469 317.269531 C 319.730469 321.5625 317.996094 323.585938 313.832031 323.703125 C 312.136719 323.753906 310.445312 323.753906 308.738281 323.753906 L 11.523438 323.753906 C 4.542969 323.753906 1.050781 320.199219 1.050781 313.082031 C 1.050781 264.492188 1.039062 215.914062 1.089844 167.324219 C 1.089844 164.472656 -0.425781 160.332031 4.835938 160.28125 C 9.789062 160.230469 9.6875 163.847656 9.6875 167.425781 C 9.664062 211.761719 10.070312 256.109375 9.472656 300.445312 C 9.230469 318.734375 10.171875 315.296875 24.359375 315.308594 C 109.425781 315.335938 194.492188 315.195312 279.558594 315.144531 C 287.621094 315.144531 295.683594 315.078125 303.734375 315.4375 C 309.296875 315.679688 310.96875 313.527344 310.96875 308 C 310.828125 211.253906 310.863281 114.507812 310.851562 17.761719 C 310.851562 9.625 310.050781 8.78125 301.632812 8.808594 C 270.667969 8.910156 239.71875 9.101562 208.757812 9.242188 C 194.125 9.304688 179.488281 9.292969 164.855469 9.484375 C 161.988281 9.519531 160.371094 8.796875 160.257812 5.777344 C 160.15625 2.9375 160.703125 0.632812 164.242188 0.617188 L 311.261719 0.617188 C 319.628906 0.617188 319.652344 0.644531 319.652344 9.242188 L 319.652344 161.976562 Z M 319.679688 161.976562 " clip-rule="nonzero"/></clipPath><clipPath id="c44d99f616"><rect x="0" width="320" y="0" height="324"/></clipPath><clipPath id="acc2afcfc7"><path d="M 151 193 L 242.097656 193 L 242.097656 330.894531 L 151 330.894531 Z M 151 193 " clip-rule="nonzero"/></clipPath><clipPath id="68664b1734"><path d="M 151.367188 261.066406 C 151.367188 240.714844 151.53125 220.359375 151.25 200.007812 C 151.175781 194.914062 152.832031 193.421875 157.761719 193.449219 C 183.195312 193.625 208.640625 193.523438 234.078125 193.550781 C 235.757812 193.550781 237.453125 193.753906 239.09375 194.074219 C 241.324219 194.519531 242.113281 196.058594 242.0625 198.273438 C 242.011719 200.644531 240.789062 201.765625 238.574219 201.917969 C 236.675781 202.046875 234.765625 202.109375 232.867188 202.109375 C 211.242188 202.046875 189.625 202.132812 168 201.777344 C 162.167969 201.6875 160.257812 203.421875 160.433594 209.367188 C 160.855469 223.558594 160.792969 237.785156 160.449219 251.972656 C 160.320312 257.144531 162.207031 258.621094 167.046875 258.519531 C 177.640625 258.289062 188.238281 258.429688 198.847656 258.46875 C 202.03125 258.46875 205.535156 258.136719 205.355469 263.078125 C 205.191406 267.714844 201.828125 266.988281 198.9375 267.039062 C 187.933594 267.203125 176.914062 267.496094 165.910156 267.421875 C 161.757812 267.394531 160.410156 268.769531 160.484375 272.960938 C 160.753906 289.277344 160.691406 305.605469 160.742188 321.933594 C 160.742188 323.410156 160.703125 324.898438 160.535156 326.363281 C 160.242188 328.949219 159.097656 330.695312 156.144531 330.734375 C 152.804688 330.785156 151.710938 328.796875 151.53125 325.933594 C 151.417969 324.035156 151.40625 322.125 151.40625 320.214844 L 151.40625 261.066406 Z M 151.367188 261.066406 " clip-rule="nonzero"/></clipPath><clipPath id="d95cd9ccce"><path d="M 0 0.199219 L 91.097656 0.199219 L 91.097656 137.894531 L 0 137.894531 Z M 0 0.199219 " clip-rule="nonzero"/></clipPath><clipPath id="553e7833b4"><path d="M 0.367188 68.066406 C 0.367188 47.714844 0.53125 27.359375 0.25 7.007812 C 0.175781 1.914062 1.832031 0.421875 6.761719 0.449219 C 32.195312 0.625 57.640625 0.523438 83.078125 0.550781 C 84.757812 0.550781 86.453125 0.753906 88.09375 1.074219 C 90.324219 1.519531 91.113281 3.058594 91.0625 5.273438 C 91.011719 7.644531 89.789062 8.765625 87.574219 8.917969 C 85.675781 9.046875 83.765625 9.109375 81.867188 9.109375 C 60.242188 9.046875 38.625 9.132812 17 8.777344 C 11.167969 8.6875 9.257812 10.421875 9.433594 16.367188 C 9.855469 30.558594 9.792969 44.785156 9.449219 58.972656 C 9.320312 64.144531 11.207031 65.621094 16.046875 65.519531 C 26.640625 65.289062 37.238281 65.429688 47.847656 65.46875 C 51.03125 65.46875 54.535156 65.136719 54.355469 70.078125 C 54.191406 74.714844 50.828125 73.988281 47.9375 74.039062 C 36.933594 74.203125 25.914062 74.496094 14.910156 74.421875 C 10.757812 74.394531 9.410156 75.769531 9.484375 79.960938 C 9.753906 96.277344 9.691406 112.605469 9.742188 128.933594 C 9.742188 130.410156 9.703125 131.898438 9.535156 133.363281 C 9.242188 135.949219 8.097656 137.695312 5.144531 137.734375 C 1.804688 137.785156 0.710938 135.796875 0.53125 132.933594 C 0.417969 131.035156 0.40625 129.125 0.40625 127.214844 L 0.40625 68.066406 Z M 0.367188 68.066406 " clip-rule="nonzero"/></clipPath><clipPath id="b74e57dfb7"><rect x="0" width="92" y="0" height="138"/></clipPath><clipPath id="efcdb41737"><path d="M 241 191.230469 L 323 191.230469 L 323 329.625 L 241 329.625 Z M 241 191.230469 " clip-rule="nonzero"/></clipPath><clipPath id="e5f75089a6"><path d="M 281.75 329.320312 C 260.914062 329.027344 243.515625 313.78125 241.859375 294.039062 C 241.578125 290.675781 239.375 285.429688 245.105469 284.71875 C 250.875 283.992188 249.972656 289.46875 250.480469 292.90625 C 253.054688 310.265625 267.890625 322.46875 284.730469 320.835938 C 301.199219 319.246094 314.46875 304.980469 314.355469 288.972656 C 314.226562 271.714844 301.503906 258.074219 283.914062 256.695312 C 271.191406 255.703125 260.25 251.882812 254.125 239.617188 C 245.207031 221.785156 251.421875 199.867188 276.222656 192.226562 C 286.21875 189.144531 301.402344 196.480469 307.566406 206.121094 C 308.964844 208.3125 310.621094 210.65625 307.792969 212.78125 C 304.929688 214.933594 302.75 213.417969 300.878906 210.921875 C 294.535156 202.515625 286.4375 198.734375 275.902344 201.804688 C 265.230469 204.921875 258.53125 214.222656 259.066406 225.074219 C 259.625 236.355469 266.527344 244.417969 277.773438 246.699219 C 281.914062 247.539062 286.128906 248.035156 290.28125 248.824219 C 311.066406 252.785156 324.480469 271.726562 322.226562 293.835938 C 320.175781 313.933594 302.332031 329.585938 281.773438 329.292969 Z M 281.75 329.320312 " clip-rule="nonzero"/></clipPath><clipPath id="f13a0880a5"><path d="M 0 0.230469 L 82 0.230469 L 82 138.625 L 0 138.625 Z M 0 0.230469 " clip-rule="nonzero"/></clipPath><clipPath id="8b1673f695"><path d="M 40.75 138.320312 C 19.914062 138.027344 2.515625 122.78125 0.859375 103.039062 C 0.578125 99.675781 -1.625 94.429688 4.105469 93.71875 C 9.875 92.992188 8.972656 98.46875 9.480469 101.90625 C 12.054688 119.265625 26.890625 131.46875 43.730469 129.835938 C 60.199219 128.246094 73.46875 113.980469 73.355469 97.972656 C 73.226562 80.714844 60.503906 67.074219 42.914062 65.695312 C 30.191406 64.703125 19.25 60.882812 13.125 48.617188 C 4.207031 30.785156 10.421875 8.867188 35.222656 1.226562 C 45.21875 -1.855469 60.402344 5.480469 66.566406 15.121094 C 67.964844 17.3125 69.621094 19.65625 66.792969 21.78125 C 63.929688 23.933594 61.75 22.417969 59.878906 19.921875 C 53.535156 11.515625 45.4375 7.734375 34.902344 10.804688 C 24.230469 13.921875 17.53125 23.222656 18.066406 34.074219 C 18.625 45.355469 25.527344 53.417969 36.773438 55.699219 C 40.914062 56.539062 45.128906 57.035156 49.28125 57.824219 C 70.066406 61.785156 83.480469 80.726562 81.226562 102.835938 C 79.175781 122.933594 61.332031 138.585938 40.773438 138.292969 Z M 40.75 138.320312 " clip-rule="nonzero"/></clipPath><clipPath id="58911a9b4b"><rect x="0" width="82" y="0" height="139"/></clipPath><clipPath id="59494e08d7"><path d="M 26.25 39 L 140 39 L 140 159.488281 L 26.25 159.488281 Z M 26.25 39 " clip-rule="nonzero"/></clipPath><clipPath id="2d10dbd3b5"><path d="M 114.570312 159.390625 C 92.777344 159.390625 71.839844 159.378906 50.902344 159.402344 C 46.253906 159.402344 46.074219 157.835938 48.304688 154.132812 C 54.976562 143.101562 61.015625 131.675781 67.917969 120.800781 C 73.574219 111.871094 76.054688 102.636719 75.496094 92.027344 C 74.847656 79.570312 75.214844 67.050781 75.40625 54.570312 C 75.484375 49.566406 74.003906 47.273438 68.492188 47.449219 C 56.429688 47.847656 44.34375 47.640625 32.269531 47.730469 C 29.1875 47.757812 26.230469 48.074219 26.269531 43.4375 C 26.308594 38.90625 29.390625 39.707031 32.015625 39.707031 C 66.148438 39.683594 100.28125 39.695312 134.414062 39.695312 C 137.152344 39.695312 139.992188 39.109375 139.953125 43.578125 C 139.917969 47.730469 137.472656 47.796875 134.515625 47.78125 C 119.679688 47.742188 104.828125 47.933594 90.003906 47.617188 C 84.855469 47.503906 83.378906 49.324219 83.445312 54.238281 C 83.648438 68.644531 83.582031 83.0625 83.390625 97.480469 C 83.316406 103.644531 85.148438 109.09375 88.207031 114.304688 C 96.867188 129.054688 105.464844 143.828125 114.558594 159.390625 Z M 114.570312 159.390625 " clip-rule="nonzero"/></clipPath><clipPath id="a4dcb820fb"><path d="M 0.25 0 L 114 0 L 114 120.488281 L 0.25 120.488281 Z M 0.25 0 " clip-rule="nonzero"/></clipPath><clipPath id="dc2e402023"><path d="M 88.570312 120.390625 C 66.777344 120.390625 45.839844 120.378906 24.902344 120.402344 C 20.253906 120.402344 20.074219 118.835938 22.304688 115.132812 C 28.976562 104.101562 35.015625 92.675781 41.917969 81.800781 C 47.574219 72.871094 50.054688 63.636719 49.496094 53.027344 C 48.847656 40.570312 49.214844 28.050781 49.40625 15.570312 C 49.484375 10.566406 48.003906 8.273438 42.492188 8.449219 C 30.429688 8.847656 18.34375 8.640625 6.269531 8.730469 C 3.1875 8.757812 0.230469 9.074219 0.269531 4.4375 C 0.308594 -0.09375 3.390625 0.707031 6.015625 0.707031 C 40.148438 0.683594 74.28125 0.695312 108.414062 0.695312 C 111.152344 0.695312 113.992188 0.109375 113.953125 4.578125 C 113.917969 8.730469 111.472656 8.796875 108.515625 8.78125 C 93.679688 8.742188 78.828125 8.933594 64.003906 8.617188 C 58.855469 8.503906 57.378906 10.324219 57.445312 15.238281 C 57.648438 29.644531 57.582031 44.0625 57.390625 58.480469 C 57.316406 64.644531 59.148438 70.09375 62.207031 75.304688 C 70.867188 90.054688 79.464844 104.828125 88.558594 120.390625 Z M 88.570312 120.390625 " clip-rule="nonzero"/></clipPath><clipPath id="3a14e84eb8"><rect x="0" width="114" y="0" height="121"/></clipPath></defs><g clip-path="url(#b32288af6b)"><g clip-path="url(#42a0ac86f3)"><g transform="matrix(1, 0, 0, 1, 29, 37)"><g clip-path="url(#c44d99f616)"><g clip-path="url(#de0b399705)"><g clip-path="url(#2a4a37e2f8)"><rect x="-111.5" width="540" fill="#161617" height="539.999987" y="-119.499998" fill-opacity="1"/></g></g></g></g></g></g><g clip-path="url(#acc2afcfc7)"><g clip-path="url(#68664b1734)"><g transform="matrix(1, 0, 0, 1, 151, 193)"><g clip-path="url(#b74e57dfb7)"><g clip-path="url(#d95cd9ccce)"><g clip-path="url(#553e7833b4)"><rect x="-233.5" width="540" fill="#121213" height="539.999987" y="-275.499998" fill-opacity="1"/></g></g></g></g></g></g><g clip-path="url(#efcdb41737)"><g clip-path="url(#e5f75089a6)"><g transform="matrix(1, 0, 0, 1, 241, 191)"><g clip-path="url(#58911a9b4b)"><g clip-path="url(#f13a0880a5)"><g clip-path="url(#8b1673f695)"><rect x="-323.5" width="540" fill="#111112" height="539.999987" y="-273.499998" fill-opacity="1"/></g></g></g></g></g></g><g clip-path="url(#59494e08d7)"><g clip-path="url(#2d10dbd3b5)"><g transform="matrix(1, 0, 0, 1, 26, 39)"><g clip-path="url(#3a14e84eb8)"><g clip-path="url(#a4dcb820fb)"><g clip-path="url(#dc2e402023)"><rect x="-108.5" width="540" fill="#09090a" height="539.999987" y="-121.499998" fill-opacity="1"/></g></g></g></g></g></g></svg>