<svg xmlns="http://www.w3.org/2000/svg" xmlns:xlink="http://www.w3.org/1999/xlink" width="500" zoomAndPan="magnify" viewBox="0 0 375 374.999991" height="500" preserveAspectRatio="xMidYMid meet" version="1.0"><defs><clipPath id="ccf5b2002f"><path d="M 0 59.324219 L 375 59.324219 L 375 285.824219 L 0 285.824219 Z M 0 59.324219 " clip-rule="nonzero"/></clipPath></defs><g clip-path="url(#ccf5b2002f)"><path fill="#000000" d="M 88.515625 118.394531 L 159.222656 118.394531 L 159.222656 124.023438 L 94.996094 124.023438 L 94.996094 166.378906 L 155.394531 166.378906 L 155.394531 172.011719 L 94.996094 172.011719 L 94.996094 218.511719 L 159.957031 218.511719 L 159.957031 224.144531 L 88.515625 224.144531 Z M 165.554688 118.394531 L 173.070312 118.394531 L 206.359375 164.898438 L 240.386719 118.394531 L 286.667969 59.324219 L 210.628906 169.789062 L 249.816406 224.144531 L 242.003906 224.144531 L 206.359375 174.671875 L 170.566406 224.144531 L 162.90625 224.144531 L 202.378906 169.789062 Z M 252.613281 124.023438 L 252.613281 118.394531 L 333.191406 118.394531 L 333.191406 124.023438 L 296.066406 124.023438 L 296.066406 224.140625 L 289.589844 224.140625 L 289.589844 124.023438 Z M 0.0625 118.394531 L 8.164062 118.394531 L 119.878906 285.8125 L 73.714844 224.144531 L 6.839844 126.394531 L 6.546875 224.144531 L 0.0625 224.144531 Z M 332.53125 216.820312 C 331.214844 216.820312 330.21875 215.785156 330.21875 214.457031 C 330.21875 213.132812 331.214844 212.105469 332.53125 212.105469 C 333.871094 212.105469 334.851562 213.132812 334.851562 214.457031 C 334.851562 215.785156 333.871094 216.820312 332.53125 216.820312 Z M 338.902344 210.617188 L 342.371094 210.617188 C 342.414062 212.5 343.792969 213.761719 345.804688 213.761719 C 348.0625 213.761719 349.335938 212.40625 349.335938 209.863281 L 349.335938 193.738281 L 352.871094 193.738281 L 352.871094 209.875 C 352.871094 214.457031 350.222656 217.097656 345.84375 217.097656 C 341.726562 217.097656 338.902344 214.539062 338.902344 210.617188 Z M 357.492188 210.410156 L 360.992188 210.410156 C 361.285156 212.582031 363.398438 213.953125 366.445312 213.953125 C 369.28125 213.953125 371.359375 212.488281 371.359375 210.460938 C 371.359375 208.726562 370.035156 207.675781 367.023438 206.964844 L 364.09375 206.253906 C 359.980469 205.292969 358.105469 203.300781 358.105469 199.949219 C 358.105469 195.886719 361.414062 193.1875 366.378906 193.1875 C 371 193.1875 374.367188 195.886719 374.574219 199.726562 L 371.140625 199.726562 C 370.808594 197.625 368.980469 196.3125 366.328125 196.3125 C 363.539062 196.3125 361.679688 197.660156 361.679688 199.714844 C 361.679688 201.339844 362.878906 202.273438 365.84375 202.96875 L 368.347656 203.585938 C 373.011719 204.675781 374.9375 206.578125 374.9375 210 C 374.9375 214.363281 371.5625 217.097656 366.175781 217.097656 C 361.128906 217.097656 357.742188 214.496094 357.492188 210.410156 Z M 357.492188 210.410156 " fill-opacity="1" fill-rule="nonzero"/></g></svg>