<svg xmlns="http://www.w3.org/2000/svg" xmlns:xlink="http://www.w3.org/1999/xlink" width="500" zoomAndPan="magnify" viewBox="0 0 375 374.999991" height="500" preserveAspectRatio="xMidYMid meet" version="1.0"><path fill="#eee400" d="M 287.398438 345.601562 C 254.683594 345.601562 233.527344 330 223.214844 309.601562 L 251.902344 292.980469 C 259.460938 305.324219 269.265625 314.378906 286.640625 314.378906 C 301.230469 314.378906 310.546875 307.078125 310.546875 297.007812 C 310.546875 281.863281 290.332031 275.933594 276.066406 269.828125 C 250.640625 259.003906 233.765625 245.40625 233.765625 216.703125 C 233.765625 190.28125 253.90625 170.152344 285.390625 170.152344 C 307.777344 170.152344 323.902344 177.953125 335.46875 198.328125 L 308.03125 215.953125 C 301.996094 205.132812 295.453125 200.855469 285.382812 200.855469 C 275.054688 200.855469 268.507812 207.40625 268.507812 215.953125 C 268.507812 226.53125 275.046875 230.804688 290.160156 237.351562 C 321.824219 250.917969 345.789062 261.589844 345.789062 296.503906 C 345.800781 328.238281 320.886719 345.601562 287.398438 345.601562 Z M 206.25 292.484375 C 206.25 328.988281 183.765625 348.285156 152.550781 348.285156 C 124.351562 348.285156 107.460938 337.5 99.148438 318.75 L 98.664062 318.75 L 127.328125 298.710938 C 132.863281 308.511719 137.851562 315.472656 149.925781 315.472656 C 161.511719 315.472656 168.75 309.609375 168.75 291.996094 L 168.75 168.75 L 206.25 168.75 Z M 0 375 L 375 375 L 375 0 L 0 0 Z M 0 375 " fill-opacity="1" fill-rule="evenodd"/></svg>