<svg xmlns="http://www.w3.org/2000/svg" xmlns:xlink="http://www.w3.org/1999/xlink" width="500" zoomAndPan="magnify" viewBox="0 0 375 374.999991" height="500" preserveAspectRatio="xMidYMid meet" version="1.0"><defs><clipPath id="ded15fc7ea"><path d="M 0 11.933594 L 375 11.933594 L 375 362.933594 L 0 362.933594 Z M 0 11.933594 " clip-rule="nonzero"/></clipPath></defs><path fill="#00d8ff" d="M 220.988281 187.125 C 220.988281 188.21875 220.933594 189.3125 220.828125 190.40625 C 220.71875 191.496094 220.558594 192.578125 220.34375 193.652344 C 220.132812 194.730469 219.863281 195.792969 219.546875 196.839844 C 219.226562 197.890625 218.859375 198.921875 218.4375 199.933594 C 218.019531 200.945312 217.550781 201.9375 217.035156 202.902344 C 216.515625 203.871094 215.953125 204.808594 215.34375 205.722656 C 214.734375 206.632812 214.082031 207.511719 213.386719 208.359375 C 212.691406 209.207031 211.957031 210.019531 211.179688 210.792969 C 210.40625 211.570312 209.59375 212.304688 208.746094 213 C 207.898438 213.695312 207.019531 214.347656 206.105469 214.957031 C 205.195312 215.566406 204.253906 216.128906 203.289062 216.644531 C 202.320312 217.164062 201.328125 217.628906 200.316406 218.050781 C 199.304688 218.46875 198.273438 218.839844 197.222656 219.15625 C 196.171875 219.476562 195.109375 219.742188 194.035156 219.953125 C 192.960938 220.167969 191.875 220.328125 190.785156 220.4375 C 189.691406 220.542969 188.597656 220.597656 187.503906 220.597656 C 186.40625 220.597656 185.3125 220.542969 184.21875 220.4375 C 183.128906 220.328125 182.042969 220.167969 180.96875 219.953125 C 179.894531 219.742188 178.832031 219.476562 177.78125 219.15625 C 176.730469 218.839844 175.699219 218.46875 174.6875 218.050781 C 173.675781 217.628906 172.683594 217.164062 171.714844 216.644531 C 170.75 216.128906 169.808594 215.566406 168.898438 214.957031 C 167.984375 214.347656 167.105469 213.695312 166.257812 213 C 165.410156 212.304688 164.597656 211.570312 163.824219 210.792969 C 163.046875 210.019531 162.3125 209.207031 161.617188 208.359375 C 160.921875 207.511719 160.269531 206.632812 159.660156 205.722656 C 159.050781 204.808594 158.488281 203.871094 157.96875 202.902344 C 157.453125 201.9375 156.984375 200.945312 156.566406 199.933594 C 156.144531 198.921875 155.777344 197.890625 155.457031 196.839844 C 155.140625 195.792969 154.871094 194.730469 154.660156 193.652344 C 154.445312 192.578125 154.285156 191.496094 154.175781 190.40625 C 154.070312 189.3125 154.015625 188.21875 154.015625 187.125 C 154.015625 186.027344 154.070312 184.933594 154.175781 183.84375 C 154.285156 182.75 154.445312 181.667969 154.660156 180.59375 C 154.871094 179.519531 155.140625 178.457031 155.457031 177.40625 C 155.777344 176.359375 156.144531 175.328125 156.566406 174.3125 C 156.984375 173.300781 157.453125 172.3125 157.96875 171.34375 C 158.488281 170.378906 159.050781 169.4375 159.660156 168.527344 C 160.269531 167.613281 160.921875 166.734375 161.617188 165.886719 C 162.3125 165.039062 163.046875 164.230469 163.824219 163.453125 C 164.597656 162.679688 165.410156 161.945312 166.257812 161.246094 C 167.105469 160.550781 167.984375 159.898438 168.898438 159.289062 C 169.808594 158.683594 170.75 158.117188 171.714844 157.601562 C 172.683594 157.085938 173.675781 156.617188 174.6875 156.199219 C 175.699219 155.777344 176.730469 155.410156 177.78125 155.089844 C 178.832031 154.773438 179.894531 154.507812 180.96875 154.292969 C 182.042969 154.078125 183.128906 153.917969 184.21875 153.8125 C 185.3125 153.703125 186.40625 153.648438 187.503906 153.648438 C 188.597656 153.648438 189.691406 153.703125 190.785156 153.8125 C 191.875 153.917969 192.960938 154.078125 194.035156 154.292969 C 195.109375 154.507812 196.171875 154.773438 197.222656 155.089844 C 198.273438 155.410156 199.304688 155.777344 200.316406 156.199219 C 201.328125 156.617188 202.320312 157.085938 203.289062 157.601562 C 204.253906 158.117188 205.195312 158.683594 206.105469 159.289062 C 207.019531 159.898438 207.898438 160.550781 208.746094 161.246094 C 209.59375 161.945312 210.40625 162.679688 211.179688 163.453125 C 211.957031 164.230469 212.691406 165.039062 213.386719 165.886719 C 214.082031 166.734375 214.734375 167.613281 215.34375 168.527344 C 215.953125 169.4375 216.515625 170.378906 217.035156 171.34375 C 217.550781 172.3125 218.019531 173.300781 218.4375 174.3125 C 218.859375 175.328125 219.226562 176.359375 219.546875 177.40625 C 219.863281 178.457031 220.132812 179.519531 220.34375 180.59375 C 220.558594 181.667969 220.71875 182.75 220.828125 183.84375 C 220.933594 184.933594 220.988281 186.027344 220.988281 187.125 Z M 220.988281 187.125 " fill-opacity="1" fill-rule="nonzero"/><path stroke-linecap="butt" transform="matrix(0.6675, 0, 0, 0.667255, 7.590708, 28.563972)" fill="none" stroke-linejoin="miter" d="M 269.53288 135.628103 C 336.884237 135.628103 399.460314 145.293402 446.639621 161.538831 C 503.48653 181.109451 538.435032 210.772727 538.435032 237.631837 C 538.435032 265.620809 501.391493 297.134015 440.348656 317.360306 C 394.199312 332.645645 333.472486 340.630786 269.53288 340.630786 C 203.978105 340.630786 141.899454 333.137399 95.229276 317.190534 C 36.187844 297.005222 0.619024 265.088076 0.619024 237.631837 C 0.619024 210.989333 33.993322 181.554371 90.038499 162.013022 C 137.393368 145.504153 201.508536 135.628103 269.527028 135.628103 Z M 269.53288 135.628103 " stroke="#00d8ff" stroke-width="24" stroke-opacity="1" stroke-miterlimit="4"/><g clip-path="url(#ded15fc7ea)"><path stroke-linecap="butt" transform="matrix(0.6675, 0, 0, 0.667255, 7.590708, 28.563972)" fill="none" stroke-linejoin="miter" d="M 180.739575 186.92268 C 214.38892 128.573782 254.019069 79.199385 291.659519 46.439233 C 337.007131 6.976011 380.16022 -8.4791 403.42801 4.938747 C 427.678946 18.918597 436.474593 66.753337 423.494724 129.738769 C 413.698375 177.356903 390.260876 233.949539 358.320333 289.336209 C 325.572206 346.127888 288.072206 396.157956 250.940886 428.607835 C 203.960549 469.67511 158.542712 484.538946 134.759941 470.822534 C 111.679417 457.521772 102.85451 413.902063 113.926608 355.588289 C 123.284051 306.319268 146.756664 245.851146 180.727871 186.928535 Z M 180.739575 186.92268 " stroke="#00d8ff" stroke-width="24" stroke-opacity="1" stroke-miterlimit="4"/><path stroke-linecap="butt" transform="matrix(0.6675, 0, 0, 0.667255, 7.590708, 28.563972)" fill="none" stroke-linejoin="miter" d="M 180.821504 289.482564 C 147.078527 231.198061 124.097488 172.199345 114.511814 123.228889 C 102.965699 64.230173 111.129323 19.11764 134.373705 5.658814 C 158.595381 -8.362016 204.428714 7.906831 252.51509 50.601575 C 288.868086 82.881682 326.204228 131.43649 358.232552 186.770471 C 391.080164 243.503608 415.693928 300.98023 425.267898 349.347703 C 437.387514 410.565164 427.579461 457.328583 403.814246 471.091828 C 380.75713 484.439424 338.569631 470.307364 293.578994 431.587627 C 255.564013 398.880163 214.892197 348.334925 180.815652 289.470855 Z M 180.821504 289.482564 " stroke="#00d8ff" stroke-width="24" stroke-opacity="1" stroke-miterlimit="4"/></g></svg>