<svg xmlns="http://www.w3.org/2000/svg" xmlns:xlink="http://www.w3.org/1999/xlink" width="500" zoomAndPan="magnify" viewBox="0 0 375 374.999991" height="500" preserveAspectRatio="xMidYMid meet" version="1.0"><defs><clipPath id="b50925b1ce"><path d="M 11.589844 1 L 363.339844 1 L 363.339844 374 L 11.589844 374 Z M 11.589844 1 " clip-rule="nonzero"/></clipPath><clipPath id="960a6b02a7"><path d="M 185 1 L 363.339844 1 L 363.339844 374 L 185 374 Z M 185 1 " clip-rule="nonzero"/></clipPath></defs><g clip-path="url(#b50925b1ce)"><path fill="#e23237" d="M 11.589844 62.851562 L 185.042969 1.113281 L 363.0625 61.898438 L 334.292969 291.320312 L 185.042969 373.886719 L 38.214844 292.390625 Z M 11.589844 62.851562 " fill-opacity="1" fill-rule="nonzero"/></g><g clip-path="url(#960a6b02a7)"><path fill="#b52e31" d="M 363.0625 61.898438 L 185.042969 1.113281 L 185.042969 373.886719 L 334.292969 291.320312 Z M 363.0625 61.898438 " fill-opacity="1" fill-rule="nonzero"/></g><path fill="#ffffff" d="M 185.3125 44.679688 L 77.222656 285.121094 L 117.558594 284.304688 L 139.339844 229.972656 L 236.011719 229.972656 L 259.679688 284.726562 L 298.140625 285.539062 Z M 185.578125 121.867188 L 222.152344 198.253906 L 153.6875 198.253906 L 185.683594 121.867188 Z M 185.578125 121.867188 " fill-opacity="1" fill-rule="nonzero"/></svg>