<svg xmlns="http://www.w3.org/2000/svg" xmlns:xlink="http://www.w3.org/1999/xlink" width="500" zoomAndPan="magnify" viewBox="0 0 375 374.999991" height="500" preserveAspectRatio="xMidYMid meet" version="1.0"><defs><clipPath id="e933bb94d8"><path d="M 24 1 L 351.9375 1 L 351.9375 375 L 24 375 Z M 24 1 " clip-rule="nonzero"/></clipPath></defs><path fill="#000000" d="M 107.242188 326.03125 C 100.730469 326.03125 94.21875 324.382812 88.253906 321.054688 L 80.105469 316.492188 C 74.484375 313.351562 72.472656 306.253906 75.621094 300.605469 C 78.75 295.003906 85.871094 292.96875 91.523438 296.125 L 99.65625 300.667969 C 104.578125 303.390625 110.21875 303.359375 115.109375 300.496094 C 120.015625 297.605469 122.851562 292.671875 122.851562 286.945312 L 122.851562 119.78125 C 122.851562 113.339844 128.085938 108.113281 134.535156 108.113281 C 140.984375 108.113281 146.21875 113.339844 146.21875 119.78125 L 146.21875 286.945312 C 146.21875 300.949219 139.007812 313.539062 126.933594 320.617188 C 120.796875 324.210938 114.019531 326.03125 107.242188 326.03125 Z M 107.242188 326.03125 " fill-opacity="1" fill-rule="nonzero"/><g clip-path="url(#e933bb94d8)"><path fill="#000000" d="M 187.71875 374.984375 C 182.84375 374.984375 177.96875 373.722656 173.636719 371.1875 L 136.203125 349.292969 C 130.640625 346.027344 128.757812 338.886719 132.011719 333.328125 C 135.269531 327.757812 142.417969 325.90625 147.996094 329.144531 L 185.429688 351.039062 C 186.832031 351.878906 188.511719 351.894531 189.976562 351.039062 L 325.488281 271.773438 C 326.96875 270.917969 327.890625 269.300781 327.890625 267.496094 L 327.890625 109.015625 C 327.890625 107.242188 326.953125 105.589844 325.457031 104.71875 L 190.007812 25.519531 C 188.574219 24.695312 186.863281 24.679688 185.492188 25.503906 L 49.839844 104.75 C 48.390625 105.605469 47.484375 107.226562 47.484375 108.984375 L 47.484375 267.496094 C 47.484375 269.238281 48.421875 270.917969 49.855469 271.742188 L 91.726562 296.234375 C 97.289062 299.503906 99.171875 306.644531 95.917969 312.199219 C 92.644531 317.738281 85.496094 319.605469 79.933594 316.386719 L 38.0625 291.894531 C 29.460938 286.867188 24.117188 277.5 24.117188 267.496094 L 24.117188 109.015625 C 24.085938 99.023438 29.429688 89.65625 38.03125 84.617188 L 173.621094 5.382812 C 182.3125 0.296875 193.09375 0.28125 201.816406 5.367188 L 337.296875 84.585938 C 345.929688 89.65625 351.257812 99.023438 351.257812 109.015625 L 351.257812 267.527344 C 351.226562 277.53125 345.898438 286.835938 337.34375 291.894531 L 201.785156 371.1875 C 197.453125 373.722656 192.578125 374.984375 187.71875 374.984375 Z M 187.71875 374.984375 " fill-opacity="1" fill-rule="nonzero"/></g><path fill="#000000" d="M 225.667969 268.445312 C 190.648438 268.445312 153.230469 256.386719 153.230469 222.527344 C 153.230469 216.085938 158.464844 210.855469 164.914062 210.855469 C 171.363281 210.855469 176.597656 216.085938 176.597656 222.527344 C 176.597656 240.359375 207.441406 245.105469 225.667969 245.105469 C 258.222656 245.105469 274.738281 241.601562 274.738281 222.527344 C 274.738281 212.941406 263.023438 209.191406 234.25 202.34375 L 222.847656 199.589844 C 219.359375 198.734375 215.664062 197.925781 211.878906 197.085938 C 187.125 191.625 153.214844 184.171875 153.214844 154.015625 C 153.214844 120.15625 190.632812 108.097656 225.652344 108.097656 C 260.671875 108.097656 298.089844 120.15625 298.089844 154.015625 C 298.089844 160.457031 292.855469 165.683594 286.40625 165.683594 C 279.957031 165.683594 274.722656 160.457031 274.722656 154.015625 C 274.722656 136.183594 243.878906 131.4375 225.652344 131.4375 C 207.425781 131.4375 176.582031 136.199219 176.582031 154.015625 C 176.582031 164.5625 194.058594 169.246094 216.910156 174.289062 C 220.914062 175.175781 224.808594 176.03125 228.46875 176.949219 L 239.65625 179.640625 C 269.722656 186.785156 298.105469 193.539062 298.105469 222.527344 C 298.105469 268.445312 249.171875 268.445312 225.667969 268.445312 Z M 225.667969 268.445312 " fill-opacity="1" fill-rule="nonzero"/></svg>